<svg xmlns="http://www.w3.org/2000/svg" width="185" height="275" fill="none" viewBox="0 0 185 275">
  <path fill="#F0F1F3" d="M0 0h185v275H0z"/>
  <g clip-path="url(#a)">
    <path fill="#535353" d="M88.578 49.64c-.95.065-1.887.212-2.068.31-.18.115-.603.197-.95.197a5.76 5.76 0 0 0-1.404.23 22.89 22.89 0 0 1-1.69.41c-.499.114-1.102.278-1.359.376-.242.082-.619.197-.83.246a3.782 3.782 0 0 0-.68.197c-.165.065-.678.262-1.131.41-1.766.59-3.728 1.475-6.113 2.753-1.162.623-2.219 1.196-2.34 1.278-2.203 1.459-3.078 2.082-4.603 3.278-.996.803-1.962 1.573-2.128 1.737-.18.18-.71.672-1.192 1.131-1.374 1.295-3.683 3.884-5.147 5.736-2.264 2.885-5.494 8.424-6.46 11.063-.045.13-.15.36-.226.491-.12.213-.317.672-.755 1.885-.075.18-.241.656-.392 1.065a10 10 0 0 1-.393 1.016 1.51 1.51 0 0 0-.135.541c0 .131-.091.476-.212.77-.196.492-.513 1.623-.845 3.082a39.04 39.04 0 0 1-.362 1.557 25.32 25.32 0 0 0-.377 2.13c-.091.623-.287 1.885-.423 2.786-.211 1.311-.257 2.655-.242 6.638 0 5.113.015 5.31.785 10.161.166 1 .68 3.294.996 4.343.106.361.317 1.098.468 1.639.151.541.332 1.049.393 1.147.06.082.12.262.12.41 0 .131.106.459.227.721.12.246.226.524.226.606 0 .263 1.645 4.032 2.687 6.13.679 1.393 3.064 5.326 3.396 5.638.15.114.256.311.256.426 0 .131.046.245.121.278.06.017.438.492.86 1.033 1.434 1.868 1.66 2.13 3.245 3.851 1.555 1.688 1.796 1.934 3.472 3.458 3.29 2.967 8.437 6.294 12.15 7.85.166.066.558.246.875.394.317.147.664.262.785.262.105 0 .392.098.634.229.226.132.724.328 1.102.427.377.114.905.295 1.177.426s.679.229.905.229c.242 0 .483.066.574.148.136.147 1.313.426 2.807.655.468.082.92.197 1.011.246.423.295 3.26.459 7.788.492 4.92.016 7.064-.099 8.06-.426.287-.099.891-.23 1.358-.312 1.389-.213 5.177-1.278 5.389-1.508.06-.065.256-.114.422-.114.181 0 .513-.115.755-.246.226-.131.513-.246.619-.246.12 0 .392-.098.634-.229.226-.132.634-.328.875-.427.966-.426 1.419-.639 3.17-1.573.996-.524 1.841-1 1.856-1.082.03-.065.181-.131.332-.131.136 0 .347-.114.453-.245.105-.132.256-.246.332-.246.09 0 .362-.164.619-.377.513-.394.951-.689 1.313-.885.121-.066.302-.181.377-.246.091-.066.8-.623 1.585-1.229.785-.607 1.464-1.147 1.509-1.197.045-.065.483-.475.981-.901 3.698-3.245 7.486-8.014 10.188-12.865 1.223-2.196 3.471-7.031 3.471-7.457 0-.066.091-.344.212-.623.12-.295.332-.901.468-1.344.135-.459.317-.95.392-1.098.075-.164.136-.459.136-.656.015-.213.105-.557.226-.786.121-.23.212-.574.227-.787 0-.197.06-.492.135-.655.091-.148.257-.869.393-1.59.136-.721.317-1.639.407-2.049.227-.999.378-2.393.664-6.424.212-3.114.212-3.655 0-6.72-.332-4.36-.467-5.687-.679-6.244a3.517 3.517 0 0 1-.166-.95c0-.279-.105-.885-.241-1.344-.121-.475-.287-1.115-.362-1.426-.272-1.213-1.102-4.015-1.238-4.18a.888.888 0 0 1-.121-.442c0-.164-.06-.426-.151-.59a14.22 14.22 0 0 1-.377-.934c-.438-1.147-1.404-3.392-1.736-4.015-.06-.131-.241-.508-.377-.82-.332-.786-.891-1.835-1.751-3.261-.407-.672-.739-1.246-.739-1.278 0-.082-1.042-1.59-1.932-2.836-1.389-1.9-3.094-3.982-4.091-4.982-.271-.279-.754-.77-1.056-1.082-1.464-1.524-3.743-3.474-5.675-4.883-.83-.607-1.57-1.131-1.66-1.164a7.373 7.373 0 0 1-.679-.426c-1.464-1-3.91-2.327-5.962-3.262-.332-.147-.71-.344-.83-.41a2.597 2.597 0 0 0-.725-.245c-.256-.066-.513-.197-.558-.279-.061-.082-.257-.147-.453-.147s-.392-.066-.438-.148c-.06-.082-.362-.196-.694-.262-.332-.066-.634-.18-.694-.262-.046-.082-.242-.148-.453-.148-.211 0-.513-.082-.679-.18-.166-.098-.619-.23-1.011-.311a55.144 55.144 0 0 1-1.766-.41 24.795 24.795 0 0 0-2.038-.41 14.685 14.685 0 0 1-1.585-.328c-.754-.213-8.904-.344-11.244-.18ZM53.26 154.954c-.21.115-.573.295-.83.41-1.01.442-1.449.655-3.547 1.786-2.897 1.557-4.663 2.655-4.8 2.999a.197.197 0 0 1-.18.132c-.121 0-1.902 1.245-2.204 1.557a8.03 8.03 0 0 1-.513.409c-.513.377-2.837 2.426-3.698 3.262-2.037 1.999-6.203 6.67-7.169 8.047-.287.409-.558.77-.604.819-.362.344-4.528 6.654-4.528 6.851 0 .082-.09.245-.21.344-.122.114-.333.426-.469.721-.136.295-.377.737-.528 1.016a7.973 7.973 0 0 0-.407.737c-.046.132-.272.541-.483.902-.951 1.655-3.804 7.817-4.936 10.653-.106.262-.362.917-.573 1.442-.212.524-.393 1.016-.393 1.098 0 .082-.105.426-.241.77-.136.344-.302.77-.363.951-.06.18-.196.541-.286.819a22.61 22.61 0 0 0-.483 1.475 59.678 59.678 0 0 1-.423 1.311c-.302.82-.498 1.508-.573 1.885a3.43 3.43 0 0 1-.197.738c-.075.18-.166.508-.196.737a9.32 9.32 0 0 1-.241.901c-.151.476-.514 1.902-.755 3.032-.075.312-.226.935-.317 1.393a27.185 27.185 0 0 0-.302 1.475c-.468 2.557-.649 3.753-.77 4.753-.06.623-.196 1.475-.271 1.885-.09.41-.151 1.786-.166 3.065v2.343h162.853l-.015-2.261c0-1.23-.075-2.623-.151-3.065a57.84 57.84 0 0 1-.287-1.967 43.043 43.043 0 0 0-.377-2.458c-.136-.721-.287-1.639-.362-2.049a16.836 16.836 0 0 0-.287-1.393c-.09-.36-.302-1.245-.468-1.966a67.031 67.031 0 0 0-.543-2.213 16.227 16.227 0 0 1-.332-1.442c-.045-.295-.136-.574-.211-.623-.076-.049-.136-.229-.136-.426 0-.18-.091-.557-.212-.836a48.015 48.015 0 0 1-.603-1.917 33.567 33.567 0 0 0-1.012-3.032c-.06-.181-.332-.918-.588-1.639-1.102-3.016-1.389-3.704-3.245-7.785-1.404-3.081-1.615-3.507-2.913-5.9-.468-.852-.921-1.688-1.011-1.836-2.144-3.982-6.007-9.44-9.358-13.225-2.113-2.377-3.185-3.491-4.377-4.573-1.524-1.36-2.038-1.819-2.566-2.245-.332-.262-.664-.541-.754-.607-.574-.508-3.004-2.294-3.487-2.589-.724-.426-1.162-.705-1.268-.819-.181-.197-4.014-2.344-4.679-2.606-.286-.131-.875-.394-1.313-.607-.422-.213-.89-.393-1.026-.393-.151 0-1.087.656-2.098 1.442-1.871 1.492-3.23 2.475-4.166 3.032-.286.18-.558.377-.603.426-.046.066-.181.164-.302.23-.121.049-.559.328-.981.59-.408.262-1.736 1.016-2.943 1.655-2.264 1.213-2.687 1.426-3.698 1.885-.981.442-1.177.524-1.766.803-.302.147-.649.262-.77.262-.136 0-.287.066-.332.164-.045.082-.196.164-.332.164-.121 0-.438.098-.694.229-.272.115-1.087.41-1.841.656-.74.246-1.555.524-1.812.623a4.54 4.54 0 0 1-1.026.245c-.302.05-.604.148-.649.23-.045.082-.317.147-.604.147-.302 0-.679.082-.845.181-.166.098-.664.245-1.087.311-.422.082-1.343.262-2.052.393-.71.148-1.962.345-2.792.426-.831.082-1.917.23-2.415.328-1.193.213-9.962.213-11.32-.016a37.315 37.315 0 0 0-2.34-.312 40.853 40.853 0 0 1-2.64-.409 121.5 121.5 0 0 0-2.038-.394c-.62-.131-1.027-.229-2.793-.704a17.682 17.682 0 0 1-1.207-.394c-.347-.131-.785-.229-.996-.229-.211 0-.438-.066-.513-.148-.09-.082-.559-.262-1.057-.426-.498-.147-1.132-.377-1.403-.508-.272-.131-.59-.229-.71-.229-.226 0-.347-.049-1.252-.541-.287-.148-.604-.279-.71-.279-.105 0-.392-.098-.634-.229-.226-.131-.8-.41-1.252-.639-3.034-1.475-4.408-2.229-6.264-3.409-.242-.164-.725-.443-1.041-.639-.8-.476-3.955-2.737-4.227-3.032-.12-.131-.256-.246-.316-.246s-.665-.475-1.359-1.065c-.68-.59-1.268-1.066-1.298-1.049-.03 0-.226.114-.438.229Z"/>
  </g>
  <defs>
    <clipPath id="a">
      <path fill="#fff" d="M0 0h163.91v177H0z" transform="translate(11 49)"/>
    </clipPath>
  </defs>
</svg>
