<svg xmlns="http://www.w3.org/2000/svg" width="360" height="282" fill="none" viewBox="0 0 360 282">
  <g clip-path="url(#a)">
    <path fill="#6C63FF" d="M303.007 55.255c2.359 23.4 20.737 43.015 38.092 56.165 5.806 4.404 12.076 8.942 15.738 16.185 4.474 8.838 3.687 19.26.819 27.171-5.223 14.421-16.91 23.603-30.429 23.886-11.664.25-24.162-5.692-35.759-5.014-19.409 1.12-32.182 20.292-40.431 40.598-5.833 14.364-11.487 31.149-24.464 34.73-9.131 2.529-19.96-2.435-29.104-9.967-4.416-3.639-8.771-7.988-13.609-9.577-2.871-.944-5.712-.829-8.424-.421-24.791 3.739-41.167 30.681-66.399 32.579-17.04 1.295-35.704-9.411-51.011-24.615-15.307-15.203-27.782-34.656-39.609-54.162C10.012 168.951 1.44 153.761.165 137.987c-1.364-16.691 6.157-30.704 16.775-37.653 10.618-6.95 23.978-7.756 37.175-6.259 16.506 1.865 34.133 7.037 48.396.402 9.721-4.519 16.716-14.058 24.279-22.373 12.637-13.899 27.344-24.75 42.104-35.32 14.127-10.116 28.514-20.11 44.715-25.627 11.483-3.914 23.686-2.592 35.484-4.865 7.692-1.48 14.088-6.07 22.169-6.268 9.954-.263 22.238 4.19 28.479 17.331 5.942 12.48 2.012 25.481 3.266 37.9Z" opacity=".1"/>
    <path fill="url(#b)" d="m256.004 4.592-22.131-1.395-12.805-.951v-.024h-.337v.027l-68.858 5.732h-5.709l-.671 24.733 11.085 4.066 6.717 35.574-30.565 63.01-18.47 14.566v13.889L125.345 175l.671 51.158 3.36.675v-.543l1.688.337v.202l65.598 22.956 2.758 1.946 5.768-3.74 46.464-27.936 4.352-215.463ZM185.48 163.516l17.971-15.848-17.971 15.848Zm-62.325 6.575 4.86 4.913v.303l-4.86-5.216Z"/>
    <path fill="#535461" d="m131.991 176.039 65.452 17.196-9.72-11.464-5.509-7.081-57.352-11.801-2.592 2.36 9.721 10.79Z"/>
    <path fill="#D6D6E3" d="m122.27 165.249 64.481 15.51.324-16.185-18.47-7.418-36.938-6.406h-10.693l1.296 14.499Zm46.659-91.715 65.777 4.383V65.104l-4.536-28.66-2.268-2.024-65.777 2.023 6.804 37.09Z"/>
    <path fill="#D6D6E3" d="M153.376 9.131h-3.24l-.648 24.615 10.693 4.046 6.48 35.405-29.486 62.717-17.821 14.499v13.824l10.693 11.127.648 50.916 3.24.674-.648-50.578-10.693-11.802-.324-14.161 17.173-14.162 30.134-62.717-6.48-35.742-10.693-4.72.972-23.941Z"/>
    <path fill="#535461" d="M150.784 9.131h-3.24l-.648 24.615 10.693 4.046 6.48 35.405-29.486 62.717-17.821 14.499v13.824l10.692 11.127.648 50.916 3.241.674-.648-50.578-10.693-11.802-.324-14.161 17.821-14.162 29.486-62.717-6.48-35.742-10.693-4.72.972-23.941Z"/>
    <path fill="#A8A8A8" d="m150.622 31.217 1.62 2.36 9.073 4.384 71.933-2.024-6.967-2.191-7.452-3.372.972-2.698-69.179 3.54Z"/>
    <path fill="#6C63FF" d="m138.471 137.262 65.777 11.127 13.285-29.335 18.145-42.148-66.749-3.372-30.458 63.728Z"/>
    <path fill="#fff" d="m172.494 85.673 44.391 3.709-23.006 47.206-43.095-6.744 21.71-44.171Z" opacity=".1"/>
    <path fill="#fff" d="m175.556 89.102 1.96.165-1.014 2.08-1.902-.296.956-1.95Zm.324 19.557 1.96.165-1.014 2.08-1.902-.296.956-1.949Zm10.692-17.197 1.961.165-1.014 2.08-1.902-.296.955-1.949Zm20.414 1.012 1.96.165-1.014 2.08-1.902-.296.956-1.95Zm-27.542 2.697 1.96.165-1.014 2.08-1.902-.296.956-1.949Zm7.128 20.569 1.961.165-1.014 2.08-1.902-.296.955-1.949Zm-17.497-11.802 1.96.165-1.014 2.081-1.902-.297.956-1.949Zm29.81-12.476 1.961.165-1.015 2.08-1.902-.296.956-1.949Zm-15.553 11.464 1.961.166-1.015 2.08-1.902-.297.956-1.949Zm-2.268-12.813 1.96.166-1.014 2.08-1.902-.297.956-1.949Zm10.045 11.802 1.96.165-1.014 2.081-1.902-.297.956-1.949Zm2.268-10.453 1.96.165-1.014 2.08-1.902-.296.956-1.949Zm-20.414 4.721 1.961.165-1.014 2.08-1.902-.296.955-1.95Z" opacity=".1"/>
    <path fill="#D6D6E3" d="m120.974 150.75 64.157 13.487 17.672-16.09-64.17-11.391-17.659 13.994Z"/>
    <path fill="#535461" d="M132.963 174.353v52.601l63.508 22.929.972-54.624-2.592-5.082-11.665-3.011-50.223-12.813Z"/>
    <path fill="#575988" d="M141.225 143.332c1.521 0 2.755-.755 2.755-1.686 0-.931-1.234-1.686-2.755-1.686s-2.754.755-2.754 1.686c0 .931 1.233 1.686 2.754 1.686Z"/>
    <path fill="#FA595F" d="M143.494 147.041c1.521 0 2.754-.755 2.754-1.686 0-.931-1.233-1.686-2.754-1.686-1.522 0-2.755.755-2.755 1.686 0 .931 1.233 1.686 2.755 1.686Z"/>
    <path fill="#FFD037" d="M135.717 146.029c1.521 0 2.754-.755 2.754-1.686 0-.931-1.233-1.686-2.754-1.686s-2.754.755-2.754 1.686c0 .931 1.233 1.686 2.754 1.686Z"/>
    <path fill="#575988" d="M170.711 149.401c1.522 0 2.755-.755 2.755-1.686 0-.931-1.233-1.686-2.755-1.686-1.521 0-2.754.755-2.754 1.686 0 .931 1.233 1.686 2.754 1.686Z"/>
    <path fill="#FFD037" d="M165.203 152.436c1.521 0 2.754-.755 2.754-1.686 0-.931-1.233-1.686-2.754-1.686s-2.754.755-2.754 1.686c0 .931 1.233 1.686 2.754 1.686Z"/>
    <path fill="#A8A8A8" d="M154.834 147.715c2.237 0 4.051-.906 4.051-2.023s-1.814-2.023-4.051-2.023-4.05.906-4.05 2.023 1.813 2.023 4.05 2.023Z"/>
    <path fill="#FA595F" d="M173.628 153.11c1.521 0 2.754-.755 2.754-1.686 0-.931-1.233-1.686-2.754-1.686s-2.755.755-2.755 1.686c0 .931 1.234 1.686 2.755 1.686Z"/>
    <path fill="#A8A8A8" d="M155.968 145.358h-1.944l-1.672-6.717a1.983 1.983 0 0 1 .326-1.649c.172-.231.392-.418.644-.546.252-.129.529-.195.809-.195a1.8 1.8 0 0 1 1.299.56c.345.358.538.845.538 1.352v7.195Zm28.028 7.752c2.237 0 4.051-.906 4.051-2.023s-1.814-2.023-4.051-2.023c-2.236 0-4.05.906-4.05 2.023s1.814 2.023 4.05 2.023Z"/>
    <path fill="#A8A8A8" d="M185.13 150.753h-1.944l-1.672-6.717a1.983 1.983 0 0 1 .326-1.649c.172-.231.392-.417.644-.546.252-.128.529-.195.809-.195.488 0 .955.201 1.299.56.345.358.538.845.538 1.352v7.195Z"/>
    <path fill="#535461" d="m153.052 9.131 66.749-5.732-1.62 25.289-66.749 3.372 1.62-22.929Z"/>
    <path fill="#D6D6E3" d="m219.477 3.399 30.782 2.36-4.212 214.451-47.146 31.527-3.24-2.36-.162-56.142-10.369-12.138v-16.86l18.146-16.522 30.782-71.147-4.374-40.63h2.268l-14.419-5.227L219.477 3.4Z"/>
    <path fill="#535461" d="m222.393 3.736 31.106 2.023-4.212 214.451-50.548 31.359v-58.334l-10.368-12.138v-16.86l18.145-16.522 30.782-71.147-5.508-40.8-11.017-5.057 1.62-26.975Z"/>
    <path fill="url(#c)" d="M167.669 133.654c-4.536 9.779-15.702 7.243-15.702 7.243-.577-.556-4.187-1.487-6.925-2.131-1.756-.415-3.152-.705-3.152-.705l3.833-5.56 2.874.614 4.287.917s19.337-10.153 14.785-.378Z"/>
    <path fill="url(#d)" d="M167.669 133.654c-4.536 9.779-15.702 7.243-15.702 7.243-.577-.556-4.187-1.487-6.925-2.131-1.756-.415-3.152-.705-3.152-.705l3.833-5.56 2.874.614 4.287.917s19.337-10.153 14.785-.378Z" opacity=".08"/>
    <path fill="url(#e)" d="m148.6 133.115-3.564 5.655c-1.756-.415-3.153-.705-3.153-.705l3.833-5.56 2.884.61Z" opacity=".1"/>
    <path fill="url(#f)" d="M108.752 112.904s16.71 27.174 34.602 27.11l4.861-7.756s-16.377-12.172-18.554-18.518c-.804-2.36-2.463-5.594-4.232-8.767-5.434-9.72-20.089-3.372-16.868 7.31.062.212.126.419.191.621Z"/>
    <path fill="url(#g)" d="M108.752 112.904s16.71 27.174 34.602 27.11l4.861-7.756s-16.377-12.172-18.554-18.518c-.804-2.36-2.463-5.594-4.232-8.767-5.434-9.72-20.089-3.372-16.868 7.31.062.212.126.419.191.621Z" opacity=".05"/>
    <path fill="url(#h)" d="m97.874 270.852.785 9.442s25.665-4.438 25.442-13.309c-.224-8.871-26.227 3.867-26.227 3.867Z"/>
    <path fill="url(#i)" d="m97.874 270.852.785 9.442s25.665-4.438 25.442-13.309c-.224-8.871-26.227 3.867-26.227 3.867Z" opacity=".1"/>
    <path fill="url(#j)" d="m127.911 273.81-.447 8.19s35.643-2.731 34.295-10.453c-1.348-7.721-20.174-3.426-20.174-3.426l-13.674 5.689Z"/>
    <path fill="url(#k)" d="M128.358 193.728s-2.106 6.069-4.795 13.022c-2.573 6.656-5.677 14.138-7.981 17.918-4.708 7.735-5.379 31.625-5.379 31.625-.897 3.867 3.587 11.377 3.587 11.377-8.965 9.778-17.26 4.096-17.26 4.096 1.568-2.957-1.121-11.376-1.121-11.376s3.587-38.905 5.832-40.726c2.245-1.821 4.034-10.921 4.034-10.921l-2.006-30.927-.46-7.081 19.276-8.872 1.39 7.054 1.378 6.984 3.505 17.827Z"/>
    <path fill="url(#l)" d="M128.358 193.728s-2.106 6.069-4.795 13.022c-2.573 6.656-5.677 14.138-7.981 17.918-4.708 7.735-5.379 31.625-5.379 31.625-.897 3.867 3.587 11.377 3.587 11.377-8.965 9.778-17.26 4.096-17.26 4.096 1.568-2.957-1.121-11.376-1.121-11.376s3.587-38.905 5.832-40.726c2.245-1.821 4.034-10.921 4.034-10.921l-2.006-30.927-.46-7.081 19.276-8.872 1.39 7.054 1.378 6.984 3.505 17.827Z" opacity=".1"/>
    <path fill="url(#m)" d="M145.169 269.035c-4.034 7.28-18.146 6.37-18.146 6.37v-21.388s-4.034-23.89-1.791-29.336c2.242-5.445-.898-15.47-.898-15.47l-.771-2.458-9.141-29.335-2.65-8.504h30.26v3.824c.039 9.104.221 31.665 1.112 36.902 1.121 6.598-2.019 10.921-2.019 10.921s1.792 26.847.224 35.263c-1.569 8.416 3.82 13.211 3.82 13.211Z"/>
    <path fill="url(#n)" d="M120.29 69.05s-4.708 13.193-14.121 17.971c-9.413 4.778 15.466 6.144 15.466 6.144s4.034-10.011 13.223-17.065l-14.568-7.05Z"/>
    <path fill="url(#o)" d="M142.042 172.751c-3.752.752-10.391 2.04-17.193 3.16-3.564.586-7.167 1.126-10.427 1.517-5.016.604-9.212.857-11.156.384l-.46-7.08 19.276-8.872 1.39 7.054h18.56s0 1.47.01 3.837Z" opacity=".1"/>
    <path fill="url(#p)" d="M145.169 171.429s-37.882 7.965-42.587 5.463c-4.704-2.502-5.832-8.872-4.484-15.925 1.348-7.054 0-24.571-2.466-46.87-1.24-11.228 1.494-18.764 4.52-23.478a14.604 14.604 0 0 1 5.208-4.835 13.94 13.94 0 0 1 6.781-1.716c4.097-.018 8.08 1.408 11.299 4.046.946.785 1.902 1.43 2.683 1.649.615.172 1.542.853 2.592 1.78 4.675 4.19 7.609 10.1 8.188 16.492.389 4.238.8 9.576 1.001 14.971a126.51 126.51 0 0 1-.136 13.825 47.132 47.132 0 0 0 .46 10.085c1.747 12.294 6.941 24.513 6.941 24.513Z"/>
    <path fill="url(#q)" d="M138.231 146.933c-13.748-8.706-20.857-33.065-20.857-33.065 0-.212 0-.421-.023-.627-.307-11.171 15.498-13.322 18.181-2.482.872 3.531 1.62 7.112 1.776 9.587.085.91.286 1.805.599 2.66a126.51 126.51 0 0 1-.136 13.825 47.163 47.163 0 0 0 .46 10.102Z" opacity=".1"/>
    <path fill="url(#r)" d="M117.935 76.899c2.235 3.847 4.005 7.722 8.544 8.38a41.931 41.931 0 0 1 7.705-7.81l-14.581-7.054s.856 2.407-1.668 6.484Z" opacity=".1"/>
    <path fill="url(#s)" d="M129.256 84.06c8.171 0 14.795-6.722 14.795-15.014 0-8.293-6.624-15.015-14.795-15.015s-14.795 6.722-14.795 15.015c0 8.292 6.624 15.015 14.795 15.015Z"/>
    <path fill="url(#t)" d="M143.879 73.756a2.935 2.935 0 0 0 1.737-.478c.71-.537.936-1.498 1.098-2.381.386-2.087.687-4.286 0-6.295-.444-1.329-1.296-2.479-1.892-3.74-1.328-2.755-1.565-6.069-3.46-8.46-1.183-1.497-5.34 0-7.077-.755-3.733-1.632-5.353-4.943-9.42-4.94a14.475 14.475 0 0 0-4.413.573c-1.817.584-3.425 1.686-4.918 2.897-2.593 2.097-5.133 4.977-4.903 8.342.149 2.148 1.41 4.046 2.152 6.049 1.244 3.372 1.017 7.162.12 10.655-.383 1.487-.82 3.264.194 4.4.648.712 1.675.914 2.592.76a8.434 8.434 0 0 0 2.592-1.08c1.458-.806 2.936-1.625 4.115-2.809.781-.782 1.41-1.706 2.152-2.525a23.969 23.969 0 0 1 4.893-4.046c1.435-.897 2.916-.338 4.423.246 3.311 1.264 6.373 3.655 10.015 3.587Z" opacity=".1"/>
    <path fill="url(#u)" d="M143.656 73.527a2.932 2.932 0 0 0 1.736-.479c.71-.536.937-1.497 1.099-2.38.385-2.087.687-4.286 0-6.296-.444-1.328-1.296-2.478-1.893-3.739-1.328-2.755-1.565-6.07-3.46-8.46-1.183-1.497-5.116.23-6.853-.53-3.733-1.631-5.577-5.169-9.643-5.165a14.47 14.47 0 0 0-4.413.573c-1.818.584-3.425 1.686-4.919 2.897-2.592 2.097-5.132 4.977-4.902 8.342.149 2.148 1.409 4.046 2.151 6.049 1.244 3.372 1.018 7.162.12 10.655-.382 1.487-.82 3.264.194 4.4.648.712 1.676.914 2.593.759a8.444 8.444 0 0 0 2.592-1.08c1.458-.805 2.935-1.624 4.115-2.808.781-.782 1.409-1.706 2.151-2.525a23.969 23.969 0 0 1 4.893-4.047c1.436-.897 2.916-.337 4.423.246 3.312 1.265 6.374 3.656 10.016 3.588Z"/>
    <path fill="url(#v)" d="M138.231 146.933a47.134 47.134 0 0 1-.46-10.085c.297-4.602.343-9.218.136-13.825-.2-5.395-.609-10.733-1.001-14.971-.581-6.399-3.523-12.314-8.207-16.502-1.04-.927-1.967-1.612-2.592-1.78-.781-.216-1.737-.864-2.683-1.65-3.182-2.64.861 2.502 1.902 3.43 4.684 4.188 7.626 10.103 8.207 16.502.389 4.238.8 9.576 1.001 14.971a126.51 126.51 0 0 1-.136 13.825 47.134 47.134 0 0 0 .46 10.085c1.744 12.284 6.938 24.497 6.938 24.497s-25.358 5.33-37.159 5.897c9.247.674 40.519-5.897 40.519-5.897s-5.181-12.22-6.925-24.497Z" opacity=".05"/>
    <path fill="url(#w)" d="M169.153 149.135c-6.95 8.19-17.034 2.731-17.034 2.731-.411-.695-3.645-2.566-6.111-3.928-1.584-.874-2.855-1.535-2.855-1.535l5.156-4.322 2.608 1.369 3.888 2.043s21.305-4.549 14.348 3.642Z"/>
    <path fill="url(#x)" d="m150.917 143.45-4.909 4.488c-1.584-.874-2.855-1.535-2.855-1.535l5.156-4.322 2.608 1.369Z" opacity=".1"/>
    <path fill="url(#y)" d="M117.824 113.187s8.966 30.715 26.227 35.492l6.723-6.143s-12.575-16.165-13.016-22.872c-.158-2.478-.904-6.069-1.775-9.586-2.683-10.837-18.489-8.689-18.181 2.482.006.207.014.416.022.627Z"/>
    <path fill="url(#z)" d="M100.454 143.106s5.832-4.778 11.208-1.137c5.375 3.642 13.223 3.187 14.344 3.413" opacity=".05"/>
    <path fill="#F7C4A7" d="M165.99 133.155c-4.325 9.536-14.943 7.081-14.943 7.081-.551-.543-3.986-1.45-6.588-2.077-1.672-.404-3-.674-3-.674l3.648-5.426 2.735.601 4.079.893s18.395-9.937 14.069-.398Z"/>
    <path fill="#000" d="M165.99 133.155c-4.325 9.536-14.943 7.081-14.943 7.081-.551-.543-3.986-1.45-6.588-2.077-1.672-.404-3-.674-3-.674l3.648-5.426 2.735.601 4.079.893s18.395-9.937 14.069-.398Z" opacity=".08"/>
    <path fill="#000" d="m147.842 132.626-3.383 5.516c-1.672-.404-3-.674-3-.674l3.648-5.425 2.735.583Z" opacity=".1"/>
    <path fill="#575988" d="M109.922 112.907s15.903 26.517 32.927 26.449l4.63-7.553s-15.582-11.876-17.656-18.07c-.765-2.286-2.343-5.455-4.024-8.544-5.185-9.482-19.118-3.288-16.056 7.135l.179.583Z"/>
    <path fill="#000" d="M109.922 112.907s15.903 26.517 32.927 26.449l4.63-7.553s-15.582-11.876-17.656-18.07c-.765-2.286-2.343-5.455-4.024-8.544-5.185-9.482-19.118-3.288-16.056 7.135l.179.583Z" opacity=".05"/>
    <path fill="#535461" d="m99.569 267.019.745 9.212s24.425-4.33 24.211-12.985c-.214-8.656-24.956 3.773-24.956 3.773Z"/>
    <path fill="#000" d="m99.569 267.019.745 9.212s24.425-4.33 24.211-12.985c-.214-8.656-24.956 3.773-24.956 3.773Z" opacity=".1"/>
    <path fill="#535461" d="m128.154 269.905-.427 7.995s33.918-2.664 32.638-10.21c-1.279-7.547-19.198-3.332-19.198-3.332l-13.013 5.547Z"/>
    <path fill="#6A5C99" d="M128.579 191.765s-2.006 5.915-4.566 12.705c-2.449 6.495-5.404 13.795-7.595 17.484-4.465 7.549-5.113 30.856-5.113 30.856-.852 3.773 3.412 11.1 3.412 11.1-8.531 9.546-16.425 3.996-16.425 3.996 1.494-2.887-1.066-11.101-1.066-11.101s3.412-37.96 5.548-39.734c2.135-1.773 3.836-10.655 3.836-10.655l-1.908-30.175-.438-6.895 18.346-8.659 1.332 6.882 1.296 6.814 3.341 17.382Z"/>
    <path fill="#000" d="M128.579 191.765s-2.006 5.915-4.566 12.705c-2.449 6.495-5.404 13.795-7.595 17.484-4.465 7.549-5.113 30.856-5.113 30.856-.852 3.773 3.412 11.1 3.412 11.1-8.531 9.546-16.425 3.996-16.425 3.996 1.494-2.887-1.066-11.101-1.066-11.101s3.412-37.96 5.548-39.734c2.135-1.773 3.836-10.655 3.836-10.655l-1.908-30.175-.438-6.895 18.346-8.659 1.332 6.882 1.296 6.814 3.341 17.382Z" opacity=".1"/>
    <path fill="#6A5C99" d="M144.579 265.242c-3.84 7.104-17.28 6.214-17.28 6.214v-20.868s-3.84-23.31-1.708-28.638c2.132-5.327-.852-15.096-.852-15.096l-.726-2.387-8.7-28.607-2.521-8.295h28.8v3.733c.035 8.878.21 30.896 1.059 36.005 1.066 6.437-1.921 10.655-1.921 10.655s1.707 26.193.214 34.393c-1.494 8.2 3.635 12.891 3.635 12.891Z"/>
    <path fill="#F7C4A7" d="M120.899 70.118s-4.481 12.874-13.44 17.534c-8.96 4.66 14.72 5.995 14.72 5.995s3.84-9.778 12.585-16.65l-13.865-6.879Z"/>
    <path fill="#000" d="M141.601 171.301c-3.57.722-9.882 1.99-16.363 3.082-3.389.574-6.821 1.1-9.925 1.481-4.773.586-8.768.836-10.618.374l-.437-6.896 18.346-8.659 1.338 6.886h17.663s-.013 1.419-.004 3.732Z" opacity=".1"/>
    <path fill="#575988" d="M144.579 170s-36.051 7.755-40.529 5.327c-4.478-2.427-5.547-8.659-4.267-15.537 1.28-6.879 0-23.974-2.346-45.73-1.183-10.955 1.422-18.306 4.3-22.908a13.824 13.824 0 0 1 4.923-4.707 13.186 13.186 0 0 1 6.482-1.7c3.913-.014 7.711 1.378 10.751 3.942.901.766 1.812 1.396 2.554 1.609.586.165 1.468.832 2.456 1.736 4.481 4.134 7.276 9.894 7.812 16.101.373 4.134.761 9.343.953 14.61.197 4.495.155 8.998-.127 13.488a47.142 47.142 0 0 0 .438 9.839c1.655 12.024 6.6 23.93 6.6 23.93Z"/>
    <path fill="#000" d="M137.975 146.11c-13.084-8.494-19.849-32.262-19.849-32.262 0-.206 0-.411-.023-.61-.291-10.898 14.75-12.999 17.303-2.421.829 3.446 1.539 6.936 1.688 9.353.08.888.272 1.761.57 2.597.198 4.494.156 8.997-.126 13.487a47.164 47.164 0 0 0 .437 9.856ZM118.66 77.776c2.126 3.753 3.811 7.536 8.133 8.173a40.462 40.462 0 0 1 7.333-7.62l-13.865-6.882s.8 2.353-1.601 6.329Z" opacity=".1"/>
    <path fill="#F7C4A7" d="M129.434 84.769c7.776 0 14.079-6.56 14.079-14.65 0-8.092-6.303-14.652-14.079-14.652-7.775 0-14.079 6.56-14.079 14.651 0 8.092 6.304 14.65 14.079 14.65Z"/>
    <path fill="#000" d="M143.351 74.71a2.744 2.744 0 0 0 1.653-.471c.673-.523.891-1.464 1.043-2.324.366-2.023.648-4.18 0-6.143-.421-1.298-1.222-2.418-1.802-3.649-1.267-2.697-1.49-5.92-3.292-8.254-1.127-1.46-5.08 0-6.736-.738-3.564-1.592-5.094-4.822-8.963-4.819a13.45 13.45 0 0 0-4.212.56c-1.73.566-3.26 1.652-4.679 2.826-2.475 2.046-4.886 4.855-4.666 8.14.143 2.097 1.342 3.93 2.048 5.9 1.186 3.298.972 6.99.113 10.395-.362 1.45-.78 3.184.185 4.296.603.692 1.594.894 2.479.739a7.929 7.929 0 0 0 2.479-1.052c1.386-.786 2.793-1.585 3.914-2.738.742-.766 1.341-1.666 2.048-2.465a22.933 22.933 0 0 1 4.656-3.949c1.367-.873 2.77-.337 4.212.24 3.14 1.24 6.053 3.574 9.52 3.507Z" opacity=".1"/>
    <path fill="#632652" d="M143.137 74.488a2.745 2.745 0 0 0 1.653-.465c.674-.523.891-1.464 1.043-2.323.366-2.024.648-4.182 0-6.144-.421-1.298-1.222-2.418-1.802-3.648-1.266-2.698-1.49-5.921-3.292-8.255-1.127-1.46-4.86.226-6.522-.516-3.564-1.591-5.308-5.057-9.177-5.057a13.454 13.454 0 0 0-4.212.56c-1.73.566-3.26 1.651-4.679 2.825-2.475 2.047-4.886 4.855-4.666 8.14.143 2.097 1.342 3.931 2.048 5.9 1.186 3.298.972 6.99.114 10.396-.363 1.45-.781 3.183.184 4.296.603.69 1.594.893 2.479.738a7.929 7.929 0 0 0 2.479-1.052c1.387-.786 2.793-1.585 3.914-2.738.742-.765 1.341-1.666 2.048-2.465a22.922 22.922 0 0 1 4.701-3.935c1.368-.873 2.771-.337 4.213.24 3.094 1.23 6.007 3.57 9.474 3.503Z"/>
    <path fill="#000" d="M137.975 146.11a47.106 47.106 0 0 1-.424-9.829c.282-4.49.324-8.993.126-13.487-.191-5.267-.58-10.473-.952-14.611-.537-6.207-3.331-11.966-7.812-16.1-.989-.907-1.87-1.572-2.457-1.737-.742-.212-1.652-.843-2.553-1.608-3.029-2.576.82 2.44 1.811 3.344 4.482 4.135 7.276 9.894 7.813 16.101.372 4.134.761 9.344.952 14.611a126.68 126.68 0 0 1-.126 13.487 47.135 47.135 0 0 0 .437 9.839c1.659 11.984 6.604 23.9 6.604 23.9s-24.133 5.2-35.361 5.756c8.801.674 38.559-5.756 38.559-5.756s-4.958-11.926-6.617-23.91Z" opacity=".05"/>
    <path fill="#F7C4A7" d="M167.403 148.258c-6.613 7.991-16.201 2.664-16.201 2.664-.389-.675-3.467-2.506-5.832-3.831a134.922 134.922 0 0 0-2.716-1.497l4.906-4.218 2.482 1.349 3.71 1.986s20.265-4.444 13.651 3.547Z"/>
    <path fill="#000" d="m150.049 142.711-4.673 4.384c-1.507-.853-2.715-1.497-2.715-1.497l4.906-4.219 2.482 1.332Z" opacity=".1"/>
    <path fill="#575988" d="M118.553 113.184s8.532 29.969 24.95 34.629l6.4-5.995s-11.989-15.771-12.388-22.315c-.152-2.418-.858-5.911-1.691-9.354-2.553-10.574-17.595-8.477-17.3 2.421.011.202.021.407.029.614Z"/>
    <path fill="#000" d="M102.022 142.374s5.547-4.663 10.667-1.109c5.119 3.554 12.585 3.109 13.651 3.331" opacity=".05"/>
  </g>
  <defs>
    <linearGradient id="b" x1="185.131" x2="185.131" y1="251.741" y2="2.222" gradientUnits="userSpaceOnUse">
      <stop stop-color="gray" stop-opacity=".25"/>
      <stop offset=".54" stop-color="gray" stop-opacity=".12"/>
      <stop offset="1" stop-color="gray" stop-opacity=".1"/>
    </linearGradient>
    <linearGradient id="c" x1="13993.7" x2="13993.7" y1="5440.36" y2="5028.28" gradientUnits="userSpaceOnUse">
      <stop stop-color="gray" stop-opacity=".25"/>
      <stop offset=".54" stop-color="gray" stop-opacity=".12"/>
      <stop offset="1" stop-color="gray" stop-opacity=".1"/>
    </linearGradient>
    <linearGradient id="d" x1="13993.7" x2="13993.7" y1="5440.36" y2="5028.28" gradientUnits="userSpaceOnUse">
      <stop stop-color="gray" stop-opacity=".25"/>
      <stop offset=".54" stop-color="gray" stop-opacity=".12"/>
      <stop offset="1" stop-color="gray" stop-opacity=".1"/>
    </linearGradient>
    <linearGradient id="e" x1="3451.69" x2="3451.69" y1="2910.2" y2="2793.79" gradientUnits="userSpaceOnUse">
      <stop stop-color="gray" stop-opacity=".25"/>
      <stop offset=".54" stop-color="gray" stop-opacity=".12"/>
      <stop offset="1" stop-color="gray" stop-opacity=".1"/>
    </linearGradient>
    <linearGradient id="f" x1="17758.3" x2="17758.3" y1="17913.6" y2="13207.8" gradientUnits="userSpaceOnUse">
      <stop stop-color="gray" stop-opacity=".25"/>
      <stop offset=".54" stop-color="gray" stop-opacity=".12"/>
      <stop offset="1" stop-color="gray" stop-opacity=".1"/>
    </linearGradient>
    <linearGradient id="g" x1="17758.3" x2="17758.3" y1="17913.6" y2="13207.8" gradientUnits="userSpaceOnUse">
      <stop stop-color="gray" stop-opacity=".25"/>
      <stop offset=".54" stop-color="gray" stop-opacity=".12"/>
      <stop offset="1" stop-color="gray" stop-opacity=".1"/>
    </linearGradient>
    <linearGradient id="h" x1="10248.6" x2="10248.6" y1="14461.8" y2="13659.2" gradientUnits="userSpaceOnUse">
      <stop stop-color="gray" stop-opacity=".25"/>
      <stop offset=".54" stop-color="gray" stop-opacity=".12"/>
      <stop offset="1" stop-color="gray" stop-opacity=".1"/>
    </linearGradient>
    <linearGradient id="i" x1="10248.6" x2="10248.6" y1="14461.8" y2="13659.2" gradientUnits="userSpaceOnUse">
      <stop stop-color="gray" stop-opacity=".25"/>
      <stop offset=".54" stop-color="gray" stop-opacity=".12"/>
      <stop offset="1" stop-color="gray" stop-opacity=".1"/>
    </linearGradient>
    <linearGradient id="j" x1="16978.9" x2="16978.9" y1="13350.4" y2="12676.3" gradientUnits="userSpaceOnUse">
      <stop stop-color="gray" stop-opacity=".25"/>
      <stop offset=".54" stop-color="gray" stop-opacity=".12"/>
      <stop offset="1" stop-color="gray" stop-opacity=".1"/>
    </linearGradient>
    <linearGradient id="k" x1="12939" x2="12939" y1="94157.9" y2="57261.3" gradientUnits="userSpaceOnUse">
      <stop stop-color="gray" stop-opacity=".25"/>
      <stop offset=".54" stop-color="gray" stop-opacity=".12"/>
      <stop offset="1" stop-color="gray" stop-opacity=".1"/>
    </linearGradient>
    <linearGradient id="l" x1="12939" x2="12939" y1="94157.9" y2="57261.3" gradientUnits="userSpaceOnUse">
      <stop stop-color="gray" stop-opacity=".25"/>
      <stop offset=".54" stop-color="gray" stop-opacity=".12"/>
      <stop offset="1" stop-color="gray" stop-opacity=".1"/>
    </linearGradient>
    <linearGradient id="m" x1="14839.2" x2="14839.2" y1="90579.4" y2="56928.6" gradientUnits="userSpaceOnUse">
      <stop stop-color="gray" stop-opacity=".25"/>
      <stop offset=".54" stop-color="gray" stop-opacity=".12"/>
      <stop offset="1" stop-color="gray" stop-opacity=".1"/>
    </linearGradient>
    <linearGradient id="n" x1="12835.4" x2="12835.4" y1="7499.81" y2="5775.06" gradientUnits="userSpaceOnUse">
      <stop stop-color="gray" stop-opacity=".25"/>
      <stop offset=".54" stop-color="gray" stop-opacity=".12"/>
      <stop offset="1" stop-color="gray" stop-opacity=".1"/>
    </linearGradient>
    <linearGradient id="o" x1="16672.5" x2="16672.5" y1="9231" y2="8453.51" gradientUnits="userSpaceOnUse">
      <stop stop-color="gray" stop-opacity=".25"/>
      <stop offset=".54" stop-color="gray" stop-opacity=".12"/>
      <stop offset="1" stop-color="gray" stop-opacity=".1"/>
    </linearGradient>
    <linearGradient id="p" x1="20810.1" x2="20810.1" y1="52140.4" y2="26317.5" gradientUnits="userSpaceOnUse">
      <stop stop-color="gray" stop-opacity=".25"/>
      <stop offset=".54" stop-color="gray" stop-opacity=".12"/>
      <stop offset="1" stop-color="gray" stop-opacity=".1"/>
    </linearGradient>
    <linearGradient id="q" x1="9283.13" x2="9283.13" y1="20339.9" y2="14785.7" gradientUnits="userSpaceOnUse">
      <stop stop-color="gray" stop-opacity=".25"/>
      <stop offset=".54" stop-color="gray" stop-opacity=".12"/>
      <stop offset="1" stop-color="gray" stop-opacity=".1"/>
    </linearGradient>
    <linearGradient id="r" x1="7162.85" x2="7162.85" y1="4302.42" y2="3647.4" gradientUnits="userSpaceOnUse">
      <stop stop-color="gray" stop-opacity=".25"/>
      <stop offset=".54" stop-color="gray" stop-opacity=".12"/>
      <stop offset="1" stop-color="gray" stop-opacity=".1"/>
    </linearGradient>
    <linearGradient id="s" x1="11918.1" x2="11918.1" y1="7540.79" y2="4866.02" gradientUnits="userSpaceOnUse">
      <stop stop-color="gray" stop-opacity=".25"/>
      <stop offset=".54" stop-color="gray" stop-opacity=".12"/>
      <stop offset="1" stop-color="gray" stop-opacity=".1"/>
    </linearGradient>
    <linearGradient id="t" x1="16255.7" x2="16255.7" y1="9165.23" y2="5792.03" gradientUnits="userSpaceOnUse">
      <stop stop-color="gray" stop-opacity=".25"/>
      <stop offset=".54" stop-color="gray" stop-opacity=".12"/>
      <stop offset="1" stop-color="gray" stop-opacity=".1"/>
    </linearGradient>
    <linearGradient id="u" x1="16229.9" x2="16229.9" y1="9142.4" y2="5769.2" gradientUnits="userSpaceOnUse">
      <stop stop-color="gray" stop-opacity=".25"/>
      <stop offset=".54" stop-color="gray" stop-opacity=".12"/>
      <stop offset="1" stop-color="gray" stop-opacity=".1"/>
    </linearGradient>
    <linearGradient id="v" x1="17527.4" x2="17527.4" y1="50297.2" y2="26269.6" gradientUnits="userSpaceOnUse">
      <stop stop-color="gray" stop-opacity=".25"/>
      <stop offset=".54" stop-color="gray" stop-opacity=".12"/>
      <stop offset="1" stop-color="gray" stop-opacity=".1"/>
    </linearGradient>
    <linearGradient id="w" x1="14623.4" x2="14623.4" y1="5781.19" y2="5384.43" gradientUnits="userSpaceOnUse">
      <stop stop-color="gray" stop-opacity=".25"/>
      <stop offset=".54" stop-color="gray" stop-opacity=".12"/>
      <stop offset="1" stop-color="gray" stop-opacity=".1"/>
    </linearGradient>
    <linearGradient id="x" x1="4011.5" x2="4011.5" y1="2898.18" y2="2796.44" gradientUnits="userSpaceOnUse">
      <stop stop-color="gray" stop-opacity=".25"/>
      <stop offset=".54" stop-color="gray" stop-opacity=".12"/>
      <stop offset="1" stop-color="gray" stop-opacity=".1"/>
    </linearGradient>
    <linearGradient id="y" x1="15251.6" x2="15251.6" y1="21710.5" y2="15515.8" gradientUnits="userSpaceOnUse">
      <stop stop-color="gray" stop-opacity=".25"/>
      <stop offset=".54" stop-color="gray" stop-opacity=".12"/>
      <stop offset="1" stop-color="gray" stop-opacity=".1"/>
    </linearGradient>
    <linearGradient id="z" x1="10166.6" x2="10166.6" y1="2354.1" y2="2286.36" gradientUnits="userSpaceOnUse">
      <stop stop-color="gray" stop-opacity=".25"/>
      <stop offset=".54" stop-color="gray" stop-opacity=".12"/>
      <stop offset="1" stop-color="gray" stop-opacity=".1"/>
    </linearGradient>
    <clipPath id="a">
      <path fill="#fff" d="M0 0h360v282H0z"/>
    </clipPath>
  </defs>
</svg>
