<svg xmlns="http://www.w3.org/2000/svg" width="342" height="513" fill="none" viewBox="0 0 342 513">
  <g clip-path="url(#a)">
    <path fill="#F2F2F2" d="M245.479 388.353c43.865 0 79.425-35.56 79.425-79.425 0-43.865-35.56-79.425-79.425-79.425-43.866 0-79.426 35.56-79.426 79.425 0 43.865 35.56 79.425 79.426 79.425Z"/>
    <path fill="#3F3D56" d="M248.491 399.089c41.626 0 75.371-6.19 75.371-13.825 0-7.636-33.745-13.826-75.371-13.826s-75.37 6.19-75.37 13.826c0 7.635 33.744 13.825 75.37 13.825Z"/>
    <path fill="#3F3D56" d="M315.437 384.871c-.078-.127-1.912-3.19-2.548-9.551-.583-5.835-.208-15.672 4.893-29.393 9.664-25.993-2.227-46.966-2.349-47.175l.587-.34c.031.053 3.099 5.4 4.912 13.915a60.71 60.71 0 0 1-2.514 33.837c-9.648 25.949-2.476 38.233-2.402 38.354l-.579.353Zm-3.779-87.645a4.408 4.408 0 1 0 0-8.816 4.408 4.408 0 0 0 0 8.816Z"/>
    <path fill="#3F3D56" d="M325.559 313.499a4.407 4.407 0 1 0 0-8.814 4.407 4.407 0 0 0 0 8.814Z"/>
    <path fill="#6C63FF" d="M316.065 324.348a4.407 4.407 0 1 0 .001-8.815 4.407 4.407 0 0 0-.001 8.815Zm11.528 9.154a4.408 4.408 0 1 0-.001-8.815 4.408 4.408 0 0 0 .001 8.815Z"/>
    <path fill="#3F3D56" d="M312.675 347.74a4.407 4.407 0 1 0 .002-8.814 4.407 4.407 0 0 0-.002 8.814Zm5.425 37.294s-4.408-10.849 8.815-18.986l-8.815 18.986Zm-5.42-.197s-2.006-11.537-17.531-11.438l17.531 11.438Zm-275.36-126.9 69.573 47.273 6.625-5.106 5.862.508-11.149 10.842-70.911-44.598v-8.919Z"/>
    <path fill="#2F2E41" d="m179.793 235.861 29.452 34.786-5.818 7.136-34.543-38.8 10.909-3.122Z"/>
    <path fill="#6C63FF" d="M34.198 255.707c3.695 0 6.69-3.395 6.69-7.582 0-4.187-2.995-7.582-6.69-7.582-3.695 0-6.69 3.395-6.69 7.582 0 4.187 2.995 7.582 6.69 7.582Z"/>
    <path fill="#3F3D56" d="M188.844 233.412c11.959-44.877-4.443-88.21-36.633-96.788-32.191-8.578-67.981 20.847-79.94 65.724-11.958 44.876 4.444 88.209 36.634 96.787 32.191 8.578 67.981-20.847 79.939-65.723Z"/>
    <path fill="#fff" d="M183.92 232.1c10.948-41.085-4.067-80.757-33.538-88.61-29.471-7.853-62.237 19.086-73.185 60.17-10.948 41.085 4.067 80.757 33.538 88.611 29.471 7.853 62.237-19.086 73.185-60.171Z" opacity=".1"/>
    <path fill="#6C63FF" d="M118.042 216.46a1.338 1.338 0 1 0 0-2.676 1.338 1.338 0 0 0 0 2.676Zm-7.581 31.665a1.338 1.338 0 1 0 0-2.676 1.338 1.338 0 0 0 0 2.676Zm37.462-28.989a1.338 1.338 0 1 0 0-2.676 1.338 1.338 0 0 0 0 2.676Zm-7.582 32.111a1.338 1.338 0 1 0 0-2.676 1.338 1.338 0 0 0 0 2.676Z"/>
    <path fill="#3F3D56" d="m39.55 269.086-4.389.879-.071.013-10.258-2.676-3.121-20.515 1.89-.883 4.8-2.238c8.473 0 10.257 4.905 10.257 4.905l.892 20.515Z"/>
    <path fill="#000" d="m35.161 269.965-.071.013-10.258-2.676-3.121-20.515 1.89-.883c3.912.517 8.488 1.628 10.151 4.005l1.41 20.056Z" opacity=".1"/>
    <path fill="#6C63FF" d="M56.273 218.914a1.34 1.34 0 0 1-.684-.189c-13.193-7.861-26.02-7.861-39.214 0a1.339 1.339 0 0 1-1.37-2.299c13.92-8.293 28.034-8.293 41.954 0a1.339 1.339 0 0 1-.686 2.488Zm-5.129 11.088c-.24 0-.477-.066-.683-.189-9.893-5.894-19.51-5.894-29.403 0a1.339 1.339 0 0 1-1.37-2.299c10.664-6.354 21.478-6.354 32.142 0a1.34 1.34 0 0 1 .605 1.505 1.337 1.337 0 0 1-1.291.983Zm9.143-23.576a1.33 1.33 0 0 1-.684-.189c-13.166-7.844-35.414-7.844-48.58 0a1.333 1.333 0 0 1-1.486-.075 1.338 1.338 0 0 1 .116-2.223c13.91-8.287 37.41-8.287 51.32 0a1.337 1.337 0 0 1-.686 2.487Z"/>
    <path fill="#FBBEBE" d="m280.039 358.867 2.825 11.299-12.429 3.39-1.13-11.864 10.734-2.825Zm-45.197 14.124v10.734l-12.43 2.26-2.26-5.649 4.52-9.604 10.17 2.259Z"/>
    <path fill="#2F2E41" d="m259.7 256.043-1.695 15.254 1.13 29.378s1.695 0 1.695 1.695-1.695 1.13 0 2.26a29.445 29.445 0 0 0 2.825 1.695l18.079 54.802s-4.52 5.65-12.994 3.955l-1.695-5.65s-3.39-3.39-3.39-5.085c0-1.695 1.13-2.26 0-3.954-1.13-1.695-18.079-36.158-18.079-36.158l-7.909-14.125-2.26 19.209s4.519 24.294 3.389 35.593c-1.129 11.3-3.389 23.164-3.389 23.164l-13.56-2.26a9.437 9.437 0 0 0-1.694-5.085c-1.695-2.259-3.955-1.694-1.695-3.389 2.259-1.695 5.084 0 2.824-2.26-2.259-2.26-2.259-4.52-2.259-4.52v-1.695l-3.39-43.503-6.215-57.061 50.282-2.26Z"/>
    <path fill="#FBBEBE" d="M221.282 153.218c8.425 0 15.254-6.829 15.254-15.254 0-8.424-6.829-15.254-15.254-15.254-8.424 0-15.254 6.83-15.254 15.254 0 8.425 6.83 15.254 15.254 15.254Z"/>
    <path fill="#FBBEBE" d="m234.559 138.247 6.214 15.254-14.688 10.734-9.04-15.819 17.514-10.169Z"/>
    <path fill="#D0CDE1" d="m235.407 149.829 5.649-2.825 3.39 7.909s22.034 6.78 20.339 37.853c-1.695 31.073-5.65 42.938-5.65 42.938s9.605 20.339 3.955 22.599c-5.65 2.259-53.672 10.734-54.802 2.824-1.13-7.909 3.955-54.237 3.955-54.237s-1.695-33.333 12.429-40.112l-2.825-6.215 13.56-10.734Z"/>
    <path fill="#FBBEBE" d="M204.333 259.432s-12.994 13.56-5.649 16.949c7.344 3.39 11.864-15.254 11.864-15.254l-6.215-1.695Z"/>
    <path fill="#2F2E41" d="m230.887 380.901 6.215-2.26s6.779 15.254 1.129 15.254h-14.689s-8.474-2.825-12.994-2.825-12.994-8.474-6.78-12.429c6.215-3.955 14.125-2.825 14.125-2.825l2.259-5.084 2.825 7.909s3.39 5.65 7.91 2.26Zm45.762-12.43s3.538-2.232 5.441-1.398c1.904.833 3.034 9.873 3.034 9.873s5.649 6.779-6.78 7.909-15.254-1.13-16.384-4.519c-1.13-3.39 1.13-6.78 1.13-6.78l3.39-1.13s3.954-2.825 2.825-3.955c-1.13-1.13 0-3.389 0-3.389s3.954 7.909 7.344 3.389ZM226.5 137.72a7.454 7.454 0 0 0-.332-1.452c-.82-1.72-4.019-1.218-4.589-3.036-.111-.356-.088-.743-.197-1.099-.279-.91-1.348-1.361-2.298-1.317-.95.044-1.84.45-2.755.709-2.234.635-4.612.392-6.922.145-1.022-.109-2.081-.231-2.956-.769s-1.505-1.622-1.187-2.598c.306-.936 1.33-1.451 1.791-2.321.731-1.382-.163-3.167.431-4.614.952-2.321 4.554-1.855 6.384-3.57.444-.416.764-.949 1.19-1.384 1.263-1.291 3.259-1.541 5.056-1.363 1.798.178 3.564.706 5.371.674 1.712-.03 3.508-.552 5.086.114.958.405 1.689 1.195 2.39 1.963l4.048 4.44a4.982 4.982 0 0 1 1.251 1.885c.244.851.02 1.764.123 2.643.237 2.004 2.114 3.518 2.367 5.52a7.193 7.193 0 0 1-.089 1.859l-.567 4.181a3.13 3.13 0 0 1-.32 1.171c-.165.282-.414.505-.6.773-.524.758-.476 1.76-.737 2.645-.26.884-1.194 1.759-2.011 1.333-.533-.278-.886-2.577-1.534-3.174-.902-.832-1.373-.729-2.486-.715-2.23.028-5.195.219-5.908-2.643Z"/>
    <path fill="#D0CDE1" d="M229.192 170.732s16.949 6.78 11.864 22.034c-5.085 15.254-18.644 62.147-18.644 62.147l-7.909 3.954-2.26 6.215-10.735-3.955 1.695-8.474s.565-.565.565-2.825c0-2.26-2.26-2.825.565-2.825 2.825 0 2.825-2.825 2.825-2.825l10.169-63.276s0-10.735 11.865-10.17Z"/>
    <path fill="#000" d="M241.904 195.873 224.39 255.76l-7.345 7.345 4.237-7.627 20.622-59.605Z" opacity=".1"/>
  </g>
  <defs>
    <clipPath id="a">
      <path fill="#fff" d="M0 0h323v284.089H0z" transform="translate(9 115)"/>
    </clipPath>
  </defs>
</svg>
