<svg xmlns="http://www.w3.org/2000/svg" width="342" height="513" fill="none" viewBox="0 0 342 513">
  <g clip-path="url(#a)">
    <path fill="#3F3D56" d="M327.2 384.792H112.617a4.808 4.808 0 0 1-4.8-4.8V72.8a4.804 4.804 0 0 1 4.8-4.8H327.2a4.806 4.806 0 0 1 4.8 4.8v307.192a4.807 4.807 0 0 1-4.8 4.8Z"/>
    <path fill="#fff" d="M322.683 380.275H117.135a4.808 4.808 0 0 1-4.8-4.8V77.317a4.802 4.802 0 0 1 4.8-4.8h205.548a4.806 4.806 0 0 1 4.799 4.8v298.158a4.808 4.808 0 0 1-4.799 4.8Z"/>
    <path fill="#F0F0F0" d="M173.359 364.641c-18.285-24.137-11.033-51.686-21.746-70.905-41.057-73.658 9.499-66.871 66.658-52.547l.136 1.589c-36.379 5.614-60.304 24.337-65.641 51.368-4.147 21.007 3.463 45.638 21.43 69.356l-.837 1.139Z"/>
    <path fill="#F0F0F0" d="m213.525 274.81-.382-1.515c20.41-9.253 18.656-36.815 36.917-43.109 139.103-47.944 1.793-53.351-29.092-78.712-27.62-22.678-57.72-49.045-95.974-62.625l.305-1.546c38.421 13.639 72.671 35.996 96.438 62.951 23.888 27.09 34.356 55.622 29.476 80.341-3.849 19.493-16.881 34.782-37.688 44.215Z"/>
    <path fill="#6C63FF" d="M157.966 221.688c-9.327-.736 1.679-6.909 2.415-16.236a16.963 16.963 0 0 1 1.794-6.364 16.94 16.94 0 0 1 31.983 9.032c-.737 9.327-26.865 14.305-36.192 13.568Zm89.555-58.067a16.932 16.932 0 0 1-11.551-5.89 16.93 16.93 0 0 1-4.003-12.332c.737-9.327-17.786-15.566-8.458-14.83 9.327.737 42.971 8.171 42.234 17.498a16.927 16.927 0 0 1-5.89 11.551 16.947 16.947 0 0 1-12.332 4.003Z"/>
    <path fill="#3F3D56" d="M267.935 142.36c1.23 2.55.505 5.496-1.118 7.697-1.847 2.504-4.784 3.739-7.796 4.147a24.008 24.008 0 0 1-9.64-.794c-3.016-.87-6.145-2.736-6.767-6.068-.415-2.221.533-4.592 2.84-5.208a5.562 5.562 0 0 1 5.258 1.427c1.915 1.993 1.769 5.193.552 7.508-1.432 2.723-4.296 4.226-7.241 4.722-3.502.589-7.021-.234-10.315-1.406-3.58-1.273-7.053-2.859-10.561-4.316-6.841-2.841-13.829-5.51-21.186-6.641-11.238-1.729-24.576.963-31.455 10.815-3.714 5.319-4.766 11.989-3.967 18.335.843 6.692 3.78 12.841 7.668 18.287a77.475 77.475 0 0 0 6.728 8.052 5.542 5.542 0 0 1 1.28 6.042c-2.131 5.236-10.652 3.567-11.287-1.831-.289-2.452 1.08-4.978 2.79-6.642a13.145 13.145 0 0 1 7.012-3.397c5.529-.923 11.374 1.127 15.601 4.688 4.775 4.023 7.463 10.136 8.879 16.088 1.612 6.775 1.694 13.745 1.847 20.671.157 7.088.426 14.26 2.46 21.101a52.12 52.12 0 0 0 7.555 15.374 54.461 54.461 0 0 0 27.15 20.12c2.65.86 5.367 1.497 8.123 1.903 1.079.16 1.208-1.529.133-1.689-12.013-1.781-23.061-8.285-30.969-17.428a51.646 51.646 0 0 1-9.255-15.427c-2.579-6.797-3.233-14.018-3.443-21.233-.215-7.368-.098-14.803-1.574-22.062-1.304-6.416-3.862-12.914-8.599-17.59-4.178-4.122-10.154-6.672-16.06-6.399-5.496.255-11.372 3.281-13.005 8.889-.766 2.631-.279 5.455 1.73 7.409a8.544 8.544 0 0 0 8.749 1.849 7.087 7.087 0 0 0 3.935-8.67 8.626 8.626 0 0 0-2.125-3.25c-4.957-5.294-9.507-11.219-11.976-18.113-2.302-6.431-2.775-13.828-.119-20.226 5.028-12.113 19.618-15.753 31.504-14.06 7.778 1.108 15.143 4.053 22.348 7.065 3.679 1.539 7.334 3.248 11.15 4.425 3.416 1.055 7.082 1.584 10.602.719 3.072-.754 5.896-2.54 7.384-5.398 1.352-2.595 1.585-5.889-.023-8.431-2.324-3.677-8.742-4.504-11.08-.375-1.552 2.74-.79 6.249 1.248 8.521 2.285 2.548 5.707 3.588 8.981 4.113 6.188.993 13.807.213 17.117-5.899 1.364-2.517 1.732-5.519.463-8.151a.846.846 0 0 0-1.546.102.846.846 0 0 0 .021.635h-.001Z"/>
    <path fill="#6C63FF" d="M248.033 293.379c-9.891-.782-36.337 12.752-43.496 6.93a43.021 43.021 0 0 1-2.596-2.273 46.65 46.65 0 0 1-7.2-8.601 40.49 40.49 0 0 1-1.017-1.61 47.488 47.488 0 0 1-3.022-5.988 47.153 47.153 0 0 1 19.516-58.738 47.161 47.161 0 0 1 31.928-5.899 47.162 47.162 0 0 1 28.173 16.139 46.972 46.972 0 0 1 9.166 17.055c-.001.006.005.006.005.012a47.34 47.34 0 0 1 .116 26.128l-.001.012c-.054.188-.109.376-.169.564-6.177 20.907-8.801 18.054-31.403 16.269Z"/>
    <path fill="#3F3D56" d="M190.916 281.86a.905.905 0 0 1-.214-.023c-.152-.374-.303-.754-.454-1.135a.85.85 0 0 1 .801-.531 11.59 11.59 0 0 0 2.544-.292c7.244-1.637 11.466-9.052 13.275-15.673 2.22-8.1 2.251-16.804 6.263-24.361a21.396 21.396 0 0 1 6.678-7.805 15.206 15.206 0 0 1 10.59-2.477c8.74 1.155 15.119 7.884 23.233 10.655 3.342 1.142 6.9 1.423 10.243.124 2.84-1.102 5.43-3.276 6.017-6.402a.823.823 0 0 1 .427-.6 36.8 36.8 0 0 1 1.12 1.38 8.173 8.173 0 0 1-.566 1.637c-1.425 2.992-4.269 4.925-7.364 5.893-3.584 1.116-7.311.691-10.798-.558-8.131-2.914-14.818-10.115-23.795-10.564-7.781-.388-13.157 6.007-15.746 12.68-3.202 8.255-2.726 17.509-6.32 25.642-2.828 6.399-8.495 12.38-15.934 12.41Z"/>
    <path fill="#3F3D56" d="M194.741 289.435a40.49 40.49 0 0 1-1.017-1.61.708.708 0 0 1 .566-.142 28.67 28.67 0 0 0 20.444-5.448 28.362 28.362 0 0 0 6.622-6.818c1.877-2.752 3.011-5.846 4.283-8.901 1.251-3.005 2.721-6.044 5.209-8.221 2.538-2.218 5.812-3.149 9.128-3.25 7.858-.234 14.71 4.232 22.358 5.154 3.412.411 6.798-.081 9.719-1.986 2.52-1.647 4.356-4.227 4.238-7.323-.044-1.023 1.446-.956 1.664-.056a.866.866 0 0 1 .024.189c.135 3.602-2.08 6.684-4.994 8.59-3.387 2.219-7.345 2.767-11.305 2.205-7.663-1.092-14.746-5.73-22.675-5.031a11.903 11.903 0 0 0-8.597 4.436c-2.087 2.678-3.19 5.95-4.477 9.055a31.435 31.435 0 0 1-5.06 8.556 30.995 30.995 0 0 1-7.532 6.349 30.023 30.023 0 0 1-18.598 4.252Zm9.796 10.874a43.021 43.021 0 0 1-2.596-2.273 32.023 32.023 0 0 0 13.2.55A33.257 33.257 0 0 0 230.293 292a29.157 29.157 0 0 0 5.761-6.025c1.848-2.601 3.463-5.476 6.25-7.199 6.05-3.736 13.292-.32 19.332 1.516 3.153.963 6.54 1.616 9.751.55 2.49-.829 4.906-2.666 5.398-5.38.192-1.067 1.887-.939 1.689.133-.038.201-.083.402-.132.602-.777 2.946-3.188 5.072-6.034 6.105-3.714 1.338-7.562.711-11.251-.413-6.068-1.85-13.998-5.654-19.488-.406-2.316 2.213-3.737 5.21-5.825 7.628a31.503 31.503 0 0 1-6.389 5.659 35.344 35.344 0 0 1-24.818 5.539Z"/>
    <path fill="#E6E6E6" d="M322.965 420.65h-40.093a4.803 4.803 0 0 1-4.8-4.8v-14.117a4.808 4.808 0 0 1 4.8-4.8h40.093a4.806 4.806 0 0 1 4.8 4.8v14.117a4.808 4.808 0 0 1-4.8 4.8Z"/>
    <path fill="#FFB6B6" d="m90.459 256.813 1.058 9.815-.623 12.871 28.508-3.387 2.679-19.299-3.413.034-28.21-.034Z"/>
    <path fill="#CCC" d="m124.475 226.396-8.814-3.26-3.766-5.469-13.548-1.355-8.357 5.354-7.006 3.567.12 18.628 8.055 33.357 28.799-1.129 3.791-23.787s8.806-11.828-.678-18.602l1.404-7.304Z"/>
    <path fill="#FFB6B6" d="M75.671 435.015h6.234l2.965-24.041h-9.199v24.041Z"/>
    <path fill="#2F2E41" d="m73.637 430.746 9.958-.594v4.266l9.467 6.538a2.666 2.666 0 0 1-1.514 4.858H79.693l-2.044-4.22-.797 4.22h-4.47l1.255-15.068Z"/>
    <path fill="#FFB6B6" d="M110.682 435.015h6.234l2.965-24.041h-9.199v24.041Z"/>
    <path fill="#2F2E41" d="m108.648 430.746 9.958-.594v4.266l9.467 6.538a2.662 2.662 0 0 1 1.03 2.986 2.663 2.663 0 0 1-2.544 1.872h-11.855l-2.044-4.22-.797 4.22h-4.47l1.255-15.068Zm-35.666-16.463h.068l1.199-39.09a10.22 10.22 0 0 1 .134-9.659l.171-.311-.445-2.062a13.14 13.14 0 0 1 .751-7.908l1.118-36.463c-3.995-25.892 15.045-42.778 15.045-42.778h28.522l6.123 21.038c4.048 39.439 3.313 77.87-3.11 115.104l.175.088c.63.218.901 1.092.604 1.952-.297.86-1.048 1.38-1.679 1.163l-15.063-.524c-.63-.218-.901-1.092-.604-1.951.297-.86 1.049-1.381 1.679-1.163l1.024.518-2.184-37.721.243-6.889-.5-7.817-2.309-35.158-8.739 43.235-8.927 46.831a1.642 1.642 0 0 1-1.107 2.859H72.982a1.646 1.646 0 1 1 0-3.294Z"/>
    <path fill="#FFB6B6" d="M70.017 303.538a5.18 5.18 0 0 1-1.57-4.085 5.171 5.171 0 0 1 2.124-3.825l7.6-46.644 8.912 3.136-9.03 44.932a5.2 5.2 0 0 1-8.036 6.486Z"/>
    <path fill="#CCC" d="M84.182 225.192s-2.556-.964-3.484 4.749c-.743 4.574-7.994 32.181-7.308 38.578a4.063 4.063 0 0 0-2.704 4.182l13.37.068c2.048-2.233 2.313-4.927 1.325-5.589l1.85-8.162 8.711-26.333-9.9-6.83-1.86-.663Z"/>
    <path fill="#FFB6B6" d="M131.576 305.523a5.173 5.173 0 0 0 1.464-6.129 5.174 5.174 0 0 0-1.336-1.799l-2.711-46.917-9.996 2.149 5.131 45.544a5.198 5.198 0 0 0 7.448 7.152Z"/>
    <path fill="#CCC" d="M124.205 226.249s2.629-.74 3.062 5.032c.347 4.621 5.195 32.749 3.961 39.063a4.063 4.063 0 0 1 2.335 4.399l-13.327-1.082c-1.848-2.401-1.881-5.108-.839-5.682l-1.14-8.291-6.414-26.985 10.451-5.953 1.911-.501Z"/>
    <path fill="#FFB8B8" d="M99.176 215.349c7.446 0 13.483-6.036 13.483-13.482s-6.037-13.482-13.483-13.482c-7.446 0-13.482 6.036-13.482 13.482s6.036 13.482 13.482 13.482Z"/>
    <path fill="#2F2E41" d="M72.381 230.202a7295.228 7295.228 0 0 1-8.559-3.039 8.627 8.627 0 0 1 1.853-2.181c2.716-2.268 6.466-2.678 9.915-3.443 3.454-.766 7.203-2.334 8.466-5.635 1.312-3.433-.59-7.139-1.694-10.637-1.547-4.881-1.514-10.33.557-15.009 2.072-4.678 6.28-8.471 11.276-9.586 4.996-1.11 10.642.699 13.713 4.788a8.454 8.454 0 0 1 10.178 4.711c.716 1.793.737 3.952-.328 5.564-1.066 1.612-3.345 2.438-5.062 1.541l.995-2.525c-3.077 1.044-5.077 6.608-4.662 9.833.41 3.219 2.29 6.04 4.198 8.669 1.907 2.629 3.94 5.285 4.76 8.428 1.181 4.52-.415 9.461-3.367 13.085-2.951 3.623-7.111 6.083-11.418 7.892a52.909 52.909 0 0 1-10.002 3.083c.612-1.192 1.22-2.383 1.831-3.575l-7.264 4.395c-1.404.136-2.82.218-4.236.246-4.12.071-8.324-.361-12.095-2.006-3.777-1.651-7.095-4.641-8.461-8.527a11.053 11.053 0 0 1-.612-3.913c3.34-.722 6.679-1.441 10.018-2.159Z"/>
    <path fill="#F2F2F2" d="M58.784 430.963a2.04 2.04 0 0 1-1.478-3.536c.05-.205.088-.352.14-.556a5.483 5.483 0 0 0-5.122-3.477 5.475 5.475 0 0 0-5.041 3.381c-1.654 3.981-3.758 7.97-4.276 12.179a16.21 16.21 0 0 0 .284 5.575 64.989 64.989 0 0 1-5.911-26.992 62.665 62.665 0 0 1 .389-6.997c.214-1.905.513-3.796.894-5.674A65.742 65.742 0 0 1 51.7 377.003a17.493 17.493 0 0 0 7.276-7.549 13.346 13.346 0 0 0 1.214-3.647c-.354.047-.714.076-1.068.099l-.337.017-.042.002a2.016 2.016 0 0 1-1.896-1.109 2.023 2.023 0 0 1 .236-2.184l.459-.565c.232-.29.47-.575.703-.865a1.23 1.23 0 0 0 .075-.087c.267-.331.534-.656.802-.987a5.85 5.85 0 0 0-1.917-1.853c-2.677-1.568-6.37-.482-8.304 1.94-1.94 2.421-2.306 5.819-1.632 8.844a23.422 23.422 0 0 0 3.24 7.224c-.145.186-.296.366-.44.552a66.137 66.137 0 0 0-6.907 10.941A27.504 27.504 0 0 0 41.52 375c-1.572-3.792-4.518-6.985-7.112-10.263-3.117-3.938-9.507-2.219-10.056 2.772l-.015.145c.385.217.762.448 1.131.692a2.767 2.767 0 0 1-1.116 5.036l-.056.009c.137 1.389.38 2.765.726 4.117a28.354 28.354 0 0 0 14.117 17.77c.226.117.447.233.674.343a67.536 67.536 0 0 0-3.636 17.108 64.057 64.057 0 0 0 .047 10.343l-.018-.122a16.93 16.93 0 0 0-5.778-9.774c-4.446-3.653-10.729-4.998-15.526-7.934a3.175 3.175 0 0 0-4.594 1.33 3.178 3.178 0 0 0-.27 1.761l.019.128a18.69 18.69 0 0 1 2.085 1.004c.385.218.762.449 1.131.693a2.764 2.764 0 0 1 .355 4.32c-.407.382-.92.631-1.47.716l-.057.009-.116.017a27.56 27.56 0 0 0 5.07 7.939 28.383 28.383 0 0 0 20.58 9.03h.006a67.521 67.521 0 0 0 4.535 13.24h16.202c.058-.18.11-.366.163-.546-1.5.095-3.005.005-4.483-.267 1.202-1.475 2.404-2.962 3.606-4.437a.852.852 0 0 0 .075-.087c.61-.755 1.226-1.504 1.836-2.259v-.001a26.967 26.967 0 0 0-.79-6.869Z"/>
    <path fill="#CACACA" d="m167.608 446.563-155.714.174a.673.673 0 0 1 0-1.345l155.714-.173a.674.674 0 0 1 .673.672.672.672 0 0 1-.673.672Z"/>
  </g>
  <defs>
    <clipPath id="a">
      <path fill="#fff" d="M0 0h322v378.737H0z" transform="translate(10 68)"/>
    </clipPath>
  </defs>
</svg>
