<svg xmlns="http://www.w3.org/2000/svg" width="360" height="424" fill="none" viewBox="0 0 360 424">
  <g clip-path="url(#a)">
    <path fill="#3F3D56" d="M354.634 354.178H114.727a5.375 5.375 0 0 1-5.366-5.366V5.366A5.37 5.37 0 0 1 114.727 0h239.907A5.372 5.372 0 0 1 360 5.366v343.446a5.374 5.374 0 0 1-5.366 5.366Z"/>
    <path fill="#fff" d="M349.583 349.127H119.778a5.37 5.37 0 0 1-5.367-5.366V10.417a5.375 5.375 0 0 1 5.367-5.366h229.805a5.372 5.372 0 0 1 5.366 5.366v333.344a5.37 5.37 0 0 1-5.366 5.366Z"/>
    <path fill="#F0F0F0" d="M182.638 331.649c-20.443-26.986-12.336-57.786-24.313-79.273-45.902-82.35 10.62-74.763 74.524-58.749l.153 1.777c-40.673 6.276-67.421 27.209-73.388 57.43-4.636 23.486 3.872 51.024 23.959 77.541l-.935 1.274Z"/>
    <path fill="#F0F0F0" d="m227.543 231.216-.427-1.693c22.819-10.346 20.858-41.16 41.274-48.197 155.519-53.602 2.005-59.647-32.526-88-30.878-25.355-64.531-54.834-107.299-70.016l.341-1.729c42.955 15.25 81.247 40.244 107.819 70.38 26.707 30.287 38.41 62.186 32.954 89.823-4.303 21.793-18.873 38.886-42.136 49.432Z"/>
    <path fill="#6C63FF" d="M165.428 171.826c-10.428-.824 1.877-7.725 2.7-18.153a18.945 18.945 0 0 1 20.374-17.398 18.954 18.954 0 0 1 12.917 6.588 18.946 18.946 0 0 1 4.472 13.793c-.824 10.428-30.036 15.993-40.463 15.17Zm100.123-64.92a18.961 18.961 0 0 1-7.112-2.008 18.955 18.955 0 0 1-9.411-11.026 18.936 18.936 0 0 1-.866-7.34c.823-10.427-19.885-17.403-9.457-16.579 10.428.824 48.043 9.135 47.219 19.563a18.939 18.939 0 0 1-20.373 17.39Z"/>
    <path fill="#3F3D56" d="M288.375 83.135c1.374 2.851.564 6.145-1.251 8.606-2.064 2.8-5.348 4.18-8.716 4.636a26.826 26.826 0 0 1-10.777-.887c-3.371-.974-6.87-3.06-7.566-6.785-.463-2.483.596-5.133 3.175-5.822a6.208 6.208 0 0 1 5.879 1.595c2.141 2.229 1.978 5.806.617 8.394-1.601 3.045-4.803 4.725-8.096 5.28-3.915.659-7.848-.262-11.531-1.572-4.003-1.424-7.886-3.197-11.808-4.826-7.648-3.176-15.461-6.16-23.686-7.425-12.565-1.932-27.476 1.077-35.168 12.092-4.152 5.947-5.328 13.404-4.434 20.499.942 7.481 4.225 14.356 8.572 20.445a86.837 86.837 0 0 0 7.523 9.002 6.205 6.205 0 0 1 1.431 6.754c-2.383 5.855-11.91 3.989-12.62-2.046-.322-2.742 1.208-5.566 3.119-7.426a14.704 14.704 0 0 1 7.84-3.798c6.182-1.032 12.717 1.26 17.442 5.241 5.338 4.498 8.344 11.333 9.927 17.987 1.802 7.575 1.894 15.367 2.065 23.11.176 7.925.477 15.943 2.75 23.591a58.283 58.283 0 0 0 8.447 17.189 60.896 60.896 0 0 0 30.354 22.495 55.8 55.8 0 0 0 9.081 2.127c1.207.179 1.351-1.71.15-1.888-13.431-1.991-25.783-9.264-34.625-19.485a57.745 57.745 0 0 1-10.346-17.247c-2.884-7.6-3.615-15.673-3.85-23.739-.241-8.238-.11-16.551-1.759-24.666-1.458-7.174-4.318-14.438-9.615-19.666-4.67-4.608-11.351-7.46-17.955-7.154-6.144.285-12.713 3.669-14.539 9.937-.857 2.942-.312 6.1 1.934 8.285a9.555 9.555 0 0 0 9.781 2.067 7.926 7.926 0 0 0 4.399-9.694 9.633 9.633 0 0 0-2.375-3.633c-5.542-5.919-10.629-12.544-13.389-20.251-2.574-7.189-3.102-15.459-.133-22.613 5.62-13.542 21.933-17.611 35.221-15.719 8.696 1.24 16.93 4.531 24.985 7.9 4.114 1.719 8.201 3.63 12.467 4.946 3.819 1.179 7.918 1.771 11.853.804 3.434-.843 6.591-2.84 8.255-6.035 1.511-2.902 1.772-6.584-.025-9.427-2.599-4.11-9.774-5.034-12.388-.418-1.735 3.063-.883 6.986 1.396 9.526 2.554 2.848 6.379 4.012 10.04 4.599 6.918 1.11 15.436.237 19.137-6.595 1.525-2.815 1.936-6.171.518-9.114a.95.95 0 0 0-1.728.114.948.948 0 0 0 .022.71Z"/>
    <path fill="#6C63FF" d="M266.124 251.976c-11.058-.873-40.625 14.258-48.629 7.748-1-.807-1.968-1.654-2.903-2.54a52.123 52.123 0 0 1-8.049-9.617 46.612 46.612 0 0 1-1.137-1.799 53.129 53.129 0 0 1-3.379-6.695c-.169-.419-.338-.844-.508-1.269a52.717 52.717 0 0 1 22.328-64.401 52.723 52.723 0 0 1 67.193 11.449c.429.502.844 1.016 1.252 1.543a52.505 52.505 0 0 1 8.995 17.524c0 .007.006.007.006.013a52.925 52.925 0 0 1 .13 29.212l-.001.013c-.061.21-.122.421-.189.631-6.906 23.374-9.84 20.185-35.109 18.188Z"/>
    <path fill="#3F3D56" d="M202.266 239.098a1.011 1.011 0 0 1-.239-.025c-.169-.419-.338-.844-.508-1.269a.95.95 0 0 1 .896-.594 12.963 12.963 0 0 0 2.844-.326c8.099-1.83 12.82-10.121 14.842-17.523 2.482-9.056 2.516-18.787 7.002-27.236a23.928 23.928 0 0 1 7.466-8.726 16.997 16.997 0 0 1 11.84-2.77c9.771 1.292 16.903 8.815 25.974 11.913 3.737 1.277 7.715 1.591 11.452.138 3.175-1.231 6.071-3.662 6.727-7.157a.922.922 0 0 1 .478-.671c.429.502.844 1.016 1.252 1.543a9.265 9.265 0 0 1-.632 1.831c-1.594 3.344-4.773 5.506-8.234 6.588-4.006 1.248-8.174.773-12.072-.625-9.09-3.257-16.567-11.308-26.603-11.81-8.699-.434-14.71 6.717-17.605 14.176-3.579 9.23-3.047 19.575-7.065 28.669-3.162 7.153-9.497 13.841-17.815 13.874Z"/>
    <path fill="#3F3D56" d="M206.543 247.567a45.856 45.856 0 0 1-1.137-1.799.784.784 0 0 1 .633-.159 32.047 32.047 0 0 0 22.856-6.092 31.661 31.661 0 0 0 7.403-7.623c2.099-3.076 3.367-6.535 4.789-9.95 1.399-3.36 3.042-6.758 5.824-9.192 2.837-2.48 6.497-3.521 10.205-3.633 8.785-.262 16.446 4.732 24.997 5.762 3.814.459 7.6-.09 10.865-2.22 2.818-1.842 4.87-4.726 4.738-8.188-.049-1.144 1.617-1.069 1.861-.062a1 1 0 0 1 .027.211c.151 4.027-2.325 7.473-5.584 9.603-3.787 2.481-8.211 3.094-12.639 2.466-8.567-1.221-16.486-6.407-25.35-5.625a13.312 13.312 0 0 0-9.613 4.959c-2.333 2.995-3.565 6.653-5.005 10.124a35.073 35.073 0 0 1-5.657 9.566 34.666 34.666 0 0 1-8.42 7.099 33.576 33.576 0 0 1-20.793 4.753Zm10.952 12.157c-1-.807-1.968-1.654-2.903-2.54a35.83 35.83 0 0 0 14.758.614 37.178 37.178 0 0 0 16.94-7.363 32.579 32.579 0 0 0 6.441-6.736c2.066-2.908 3.872-6.122 6.988-8.048 6.764-4.178 14.86-.359 21.613 1.694 3.525 1.077 7.312 1.807 10.902.615 2.783-.927 5.485-2.981 6.035-6.015.215-1.193 2.11-1.049 1.888.149-.043.225-.092.449-.148.673-.868 3.294-3.564 5.671-6.745 6.826-4.153 1.496-8.454.795-12.579-.462-6.784-2.069-15.65-6.322-21.788-.455-2.589 2.475-4.177 5.826-6.513 8.529a35.162 35.162 0 0 1-7.143 6.326 39.506 39.506 0 0 1-27.746 6.193Z"/>
    <path fill="#E6E6E6" d="M349.899 394.268h-44.825a5.375 5.375 0 0 1-5.366-5.367v-15.783a5.37 5.37 0 0 1 5.366-5.366h44.825a5.369 5.369 0 0 1 5.366 5.366v15.783a5.375 5.375 0 0 1-5.366 5.367Z"/>
    <path fill="#FFB6B6" d="m89.954 211.095 1.183 10.974-.697 14.389 31.873-3.786 2.995-21.577-3.815.038-31.54-.038Z"/>
    <path fill="#CCC" d="m127.985 177.089-9.854-3.645-4.211-6.115-15.147-1.514-9.344 5.985-7.832 3.989.134 20.826 9.005 37.294 32.198-1.263 4.239-26.594s9.845-13.224-.758-20.797l1.57-8.166Z"/>
    <path fill="#FFB6B6" d="M73.421 410.327h6.97l3.315-26.878H73.42v26.878Z"/>
    <path fill="#2F2E41" d="m71.147 405.555 11.133-.665v4.77l10.585 7.31a2.977 2.977 0 0 1 .072 4.852 2.982 2.982 0 0 1-1.765.579H77.918l-2.285-4.718-.892 4.718h-4.997l1.403-16.846Z"/>
    <path fill="#FFB6B6" d="M112.564 410.327h6.969l3.316-26.878h-10.285v26.878Z"/>
    <path fill="#2F2E41" d="m110.29 405.555 11.133-.665v4.77l10.584 7.31a2.976 2.976 0 0 1 1.152 3.338 2.98 2.98 0 0 1-2.845 2.093H117.06l-2.284-4.718-.892 4.718h-4.998l1.404-16.846Zm-39.875-18.406h.076l1.34-43.703a11.426 11.426 0 0 1 .15-10.799l.192-.347-.498-2.307a14.688 14.688 0 0 1 .84-8.84l1.25-40.767c-4.467-28.947 16.82-47.825 16.82-47.825h31.887l6.846 23.52c4.526 44.093 3.705 87.06-3.477 128.688l.196.099c.705.243 1.007 1.22.675 2.181-.331.961-1.172 1.544-1.877 1.3l-16.84-.585c-.705-.244-1.008-1.22-.676-2.182.332-.961 1.173-1.543 1.878-1.3l1.145.579-2.442-42.172.271-7.703-.559-8.738-2.581-39.308-9.77 48.337-9.98 52.358a1.839 1.839 0 0 1-.198 2.877c-.306.21-.67.321-1.04.32H70.414a1.843 1.843 0 0 1-1.302-3.144 1.843 1.843 0 0 1 1.302-.539Z"/>
    <path fill="#FFB6B6" d="M67.1 263.334a5.773 5.773 0 0 1-1.755-4.566 5.783 5.783 0 0 1 2.375-4.277l8.496-52.149 9.964 3.506-10.097 50.235a5.815 5.815 0 0 1-5.197 8.899 5.808 5.808 0 0 1-3.786-1.648Z"/>
    <path fill="#CCC" d="M82.936 175.742s-2.858-1.077-3.895 5.311c-.83 5.113-8.937 35.978-8.17 43.13a4.538 4.538 0 0 0-3.024 4.675l14.95.077c2.288-2.497 2.585-5.509 1.48-6.249l2.068-9.125 9.74-29.441-11.069-7.636-2.08-.742Z"/>
    <path fill="#FFB6B6" d="M135.923 265.554a5.776 5.776 0 0 0 1.638-6.853 5.787 5.787 0 0 0-1.495-2.011l-3.03-52.454-11.175 2.403 5.736 50.918a5.812 5.812 0 0 0 8.326 7.997Z"/>
    <path fill="#CCC" d="M127.682 176.925s2.94-.828 3.424 5.625c.387 5.166 5.808 36.615 4.429 43.673a4.544 4.544 0 0 1 2.61 4.919l-14.9-1.21c-2.066-2.684-2.102-5.711-.937-6.353l-1.276-9.27-7.17-30.169 11.684-6.655 2.136-.56Z"/>
    <path fill="#FFB8B8" d="M99.7 164.739c8.325 0 15.074-6.749 15.074-15.074s-6.749-15.073-15.074-15.073-15.073 6.748-15.073 15.073 6.748 15.074 15.073 15.074Z"/>
    <path fill="#2F2E41" d="M69.743 181.344a9200.52 9200.52 0 0 1-9.57-3.398 9.649 9.649 0 0 1 2.072-2.438c3.037-2.536 7.23-2.994 11.085-3.85 3.862-.855 8.054-2.609 9.466-6.3 1.466-3.837-.66-7.98-1.895-11.891-1.729-5.457-1.692-11.55.624-16.78 2.316-5.231 7.02-9.472 12.606-10.719 5.585-1.24 11.898.783 15.332 5.353a9.454 9.454 0 0 1 11.378 5.268c.801 2.004.825 4.418-.367 6.221-1.191 1.802-3.739 2.725-5.658 1.723l1.112-2.823c-3.44 1.167-5.677 7.387-5.212 10.993.458 3.599 2.56 6.752 4.693 9.691 2.132 2.94 4.405 5.909 5.322 9.423 1.32 5.054-.464 10.578-3.764 14.629-3.3 4.052-7.95 6.801-12.765 8.824a59.185 59.185 0 0 1-11.183 3.447c.684-1.333 1.363-2.665 2.047-3.997l-8.121 4.913c-1.57.153-3.153.245-4.736.275-4.608.08-9.307-.403-13.523-2.242-4.223-1.846-7.932-5.188-9.46-9.533a12.355 12.355 0 0 1-.684-4.375c3.734-.807 7.467-1.612 11.201-2.414Z"/>
    <path fill="#F2F2F2" d="M54.541 405.798a2.287 2.287 0 0 1-2.209-1.399 2.282 2.282 0 0 1 .556-2.555l.156-.622c-.02-.049-.04-.099-.062-.149a6.123 6.123 0 0 0-5.664-3.737 6.124 6.124 0 0 0-5.636 3.779c-1.848 4.451-4.2 8.91-4.78 13.617a18.116 18.116 0 0 0 .318 6.232 72.656 72.656 0 0 1-6.61-30.177c0-2.614.145-5.225.436-7.823.24-2.13.573-4.244 1-6.343A73.496 73.496 0 0 1 46.62 345.47a19.566 19.566 0 0 0 8.135-8.44 14.924 14.924 0 0 0 1.357-4.078 18.52 18.52 0 0 1-1.194.111l-.377.019-.047.002a2.256 2.256 0 0 1-2.12-1.24 2.262 2.262 0 0 1 .264-2.442l.514-.631c.26-.325.525-.643.785-.967.03-.031.058-.064.084-.098.3-.37.598-.733.897-1.103a6.539 6.539 0 0 0-2.143-2.072c-2.993-1.753-7.122-.538-9.284 2.169-2.169 2.707-2.578 6.505-1.825 9.888a26.204 26.204 0 0 0 3.623 8.077c-.162.207-.331.409-.493.616a74.036 74.036 0 0 0-7.721 12.232 30.75 30.75 0 0 0-1.836-14.283c-1.758-4.239-5.051-7.81-7.952-11.475-3.484-4.402-10.628-2.481-11.242 3.1a44.5 44.5 0 0 0-.018.162c.431.243.853.501 1.266.774a3.093 3.093 0 0 1-1.248 5.631l-.063.009a30.8 30.8 0 0 0 .812 4.604 31.698 31.698 0 0 0 15.783 19.867c.253.129.5.259.753.383a75.5 75.5 0 0 0-4.064 19.127 71.62 71.62 0 0 0 .052 11.563l-.02-.137a18.92 18.92 0 0 0-6.46-10.926c-4.971-4.084-11.995-5.588-17.358-8.871a3.554 3.554 0 0 0-3.823-.009 3.55 3.55 0 0 0-1.595 3.608 20.578 20.578 0 0 1 3.596 1.897 3.093 3.093 0 0 1-1.247 5.631l-.063.009-.13.02a30.805 30.805 0 0 0 5.668 8.875 31.725 31.725 0 0 0 23.01 10.096h.006a75.486 75.486 0 0 0 5.07 14.803h18.114c.065-.201.124-.409.182-.611-1.676.106-3.36.006-5.012-.298 1.344-1.649 2.688-3.311 4.032-4.96.03-.031.058-.064.084-.098.682-.844 1.37-1.681 2.052-2.525v-.001a30.145 30.145 0 0 0-.883-7.68Z"/>
    <path fill="#CACACA" d="m176.208 423.239-174.09.194a.756.756 0 0 1-.752-.752.753.753 0 0 1 .752-.752l174.09-.194a.75.75 0 0 1 0 1.504Z"/>
  </g>
  <defs>
    <clipPath id="a">
      <path fill="#fff" d="M0 0h360v423.433H0z"/>
    </clipPath>
  </defs>
</svg>
