<svg xmlns="http://www.w3.org/2000/svg" width="360" height="317" fill="none" viewBox="0 0 360 317">
  <g clip-path="url(#a)">
    <path fill="#F2F2F2" d="M263.567 304.667c48.891 0 88.524-39.634 88.524-88.524s-39.633-88.523-88.524-88.523c-48.89 0-88.523 39.633-88.523 88.523 0 48.89 39.633 88.524 88.523 88.524Z"/>
    <path fill="#3F3D56" d="M266.925 316.632c46.395 0 84.005-6.899 84.005-15.409 0-8.51-37.61-15.409-84.005-15.409-46.394 0-84.004 6.899-84.004 15.409 0 8.51 37.61 15.409 84.004 15.409Z"/>
    <path fill="#3F3D56" d="M341.54 300.786c-.087-.142-2.131-3.556-2.84-10.645-.65-6.505-.232-17.468 5.453-32.76 10.772-28.971-2.482-52.347-2.617-52.579l.653-.38c.035.059 3.455 6.019 5.475 15.509a67.67 67.67 0 0 1-2.802 37.713c-10.753 28.922-2.759 42.613-2.677 42.748l-.645.394Zm-4.212-97.686a4.912 4.912 0 1 0 0-9.824 4.912 4.912 0 0 0 0 9.824Z"/>
    <path fill="#3F3D56" d="M352.821 221.238a4.912 4.912 0 1 0 0-9.825 4.913 4.913 0 0 0 0 9.825Z"/>
    <path fill="#6C63FF" d="M342.24 233.329a4.912 4.912 0 1 0 0-9.824 4.912 4.912 0 0 0 0 9.824Zm12.848 10.203a4.913 4.913 0 1 0-.001-9.825 4.913 4.913 0 0 0 .001 9.825Z"/>
    <path fill="#3F3D56" d="M338.462 259.401a4.912 4.912 0 1 0 0-9.824 4.913 4.913 0 1 0 0 9.824Zm6.045 41.566s-4.912-12.092 9.825-21.161l-9.825 21.161Zm-6.041-.22s-2.235-12.858-19.538-12.748l19.538 12.748ZM31.564 159.31 109.107 212l7.384-5.692 6.534.567-12.427 12.083-79.034-49.706v-9.942Z"/>
    <path fill="#2F2E41" d="m190.357 134.706 32.826 38.771-6.484 7.953-38.5-43.245 12.158-3.479Z"/>
    <path fill="#6C63FF" d="M28.084 156.825c4.118 0 7.457-3.783 7.457-8.45s-3.339-8.45-7.456-8.45c-4.118 0-7.457 3.783-7.457 8.45s3.339 8.45 7.456 8.45Z"/>
    <path fill="#3F3D56" d="M200.446 131.976c13.328-50.017-4.952-98.314-40.83-107.875-35.879-9.56-75.768 23.236-89.097 73.253-13.328 50.017 4.952 98.314 40.83 107.875 35.879 9.56 75.768-23.236 89.097-73.253Z"/>
    <path fill="#fff" d="M194.958 130.514c12.202-45.79-4.534-90.008-37.381-98.76C124.731 23 88.211 53.026 76.009 98.817c-12.203 45.791 4.533 90.007 37.38 98.76s69.366-21.272 81.569-67.063Z" opacity=".1"/>
    <path fill="#6C63FF" d="M121.533 113.083a1.49 1.49 0 1 0 0-2.982 1.49 1.49 0 0 0 0 2.982Zm-8.45 35.292a1.492 1.492 0 1 0 0-2.984 1.492 1.492 0 0 0 0 2.984Zm41.754-32.31a1.49 1.49 0 1 0 0-2.982 1.49 1.49 0 0 0 0 2.982Zm-8.45 35.789a1.49 1.49 0 1 0 0-2.982 1.49 1.49 0 0 0 0 2.982Z"/>
    <path fill="#3F3D56" d="m34.05 171.737-4.892.979-.08.015-11.432-2.982-3.48-22.865 2.108-.984 5.349-2.495c9.444 0 11.432 5.467 11.432 5.467l.994 22.865Z"/>
    <path fill="#000" d="m29.158 172.716-.08.015-11.432-2.982-3.48-22.865 2.108-.985c4.36.577 9.46 1.815 11.313 4.464l1.571 22.353Z" opacity=".1"/>
    <path fill="#6C63FF" d="M52.688 115.817c-.268 0-.532-.072-.762-.21-14.705-8.761-29.002-8.761-43.706 0a1.495 1.495 0 0 1-2.207-1.647 1.49 1.49 0 0 1 .68-.915c15.514-9.243 31.246-9.243 46.76 0a1.49 1.49 0 0 1-.765 2.772Zm-5.716 12.358a1.48 1.48 0 0 1-.762-.21c-11.026-6.569-21.745-6.569-32.771 0a1.495 1.495 0 0 1-2.207-1.647c.097-.383.341-.712.68-.915 11.886-7.082 23.938-7.082 35.824 0a1.49 1.49 0 0 1-.764 2.772Zm10.189-26.276a1.48 1.48 0 0 1-.761-.21c-14.675-8.743-39.47-8.743-54.145 0a1.494 1.494 0 0 1-1.657-.084 1.493 1.493 0 0 1-.303-2.089 1.49 1.49 0 0 1 .433-.39c15.502-9.235 41.696-9.235 57.198 0a1.491 1.491 0 0 1-.765 2.773Z"/>
    <path fill="#FBBEBE" d="m302.087 271.802 3.149 12.594-13.853 3.778-1.26-13.223 11.964-3.149Zm-50.375 15.743v11.964l-13.853 2.518-2.519-6.297 5.037-10.704 11.335 2.519Z"/>
    <path fill="#2F2E41" d="m279.418 157.2-1.889 17.001 1.26 32.744s1.889 0 1.889 1.889-1.889 1.259 0 2.519a32.65 32.65 0 0 0 3.148 1.889l20.15 61.079s-5.038 6.297-14.483 4.408l-1.889-6.297s-3.778-3.778-3.778-5.667c0-1.889 1.259-2.519 0-4.408-1.259-1.889-20.15-40.3-20.15-40.3l-8.815-15.742-2.519 21.41s5.037 27.076 3.778 39.67c-1.259 12.594-3.778 25.817-3.778 25.817l-15.113-2.519c-.068-2.032-.724-4-1.889-5.667-1.889-2.519-4.408-1.889-1.889-3.778s5.667 0 3.149-2.519c-2.519-2.518-2.519-5.037-2.519-5.037v-1.889l-3.778-48.486-6.927-63.599 56.042-2.518Z"/>
    <path fill="#FBBEBE" d="M236.599 42.596c9.39 0 17.002-7.611 17.002-17.001s-7.612-17.002-17.002-17.002c-9.389 0-17.001 7.612-17.001 17.002 0 9.39 7.612 17.001 17.001 17.001Z"/>
    <path fill="#FBBEBE" d="m251.397 25.91 6.926 17.001-16.371 11.964-10.075-17.63 19.52-11.335Z"/>
    <path fill="#D0CDE1" d="m252.342 38.818 6.297-3.148 3.778 8.816s24.558 7.556 22.668 42.188c-1.889 34.633-6.296 47.857-6.296 47.857s10.704 22.668 4.407 25.187c-6.296 2.519-59.82 11.964-61.079 3.149-1.26-8.816 4.407-60.45 4.407-60.45s-1.889-37.152 13.854-44.708l-3.149-6.927 15.113-11.964Z"/>
    <path fill="#FBBEBE" d="M217.709 160.978s-14.483 15.112-6.297 18.89c8.186 3.778 13.224-17.001 13.224-17.001l-6.927-1.889Z"/>
    <path fill="#2F2E41" d="m247.304 296.361 6.927-2.519s7.556 17.001 1.259 17.001h-16.372s-9.445-3.148-14.482-3.148c-5.038 0-14.483-9.445-7.557-13.853 6.927-4.408 15.742-3.148 15.742-3.148l2.519-5.668 3.149 8.816s3.778 6.297 8.815 2.519Zm51.005-13.854s3.943-2.488 6.064-1.559c2.122.93 3.381 11.004 3.381 11.004s6.297 7.557-7.556 8.816c-13.853 1.259-17.002-1.259-18.261-5.037-1.26-3.779 1.259-7.557 1.259-7.557l3.778-1.259s4.408-3.148 3.149-4.408c-1.26-1.259 0-3.778 0-3.778s4.408 8.816 8.186 3.778ZM242.415 25.322a8.384 8.384 0 0 0-.37-1.617c-.914-1.918-4.479-1.358-5.115-3.384-.124-.397-.098-.829-.22-1.226-.31-1.013-1.502-1.516-2.561-1.467-1.059.049-2.05.501-3.07.79-2.491.707-5.141.437-7.715.162-1.139-.122-2.32-.258-3.295-.858-.975-.6-1.677-1.807-1.322-2.895.34-1.044 1.482-1.617 1.995-2.587.816-1.54-.181-3.53.48-5.142 1.061-2.587 5.076-2.068 7.116-3.98.495-.464.852-1.057 1.327-1.542 1.408-1.44 3.631-1.718 5.635-1.52 2.003.2 3.972.788 5.985.752 1.909-.034 3.911-.615 5.67.128 1.067.45 1.882 1.331 2.663 2.187l4.512 4.949a5.556 5.556 0 0 1 1.394 2.1c.272.948.022 1.966.138 2.946.264 2.234 2.355 3.92 2.637 6.152a7.993 7.993 0 0 1-.099 2.072l-.632 4.66a3.477 3.477 0 0 1-.356 1.306c-.184.314-.462.562-.669.861-.584.845-.531 1.962-.821 2.948-.29.985-1.332 1.96-2.242 1.485-.594-.31-.987-2.872-1.709-3.537-1.005-.927-1.531-.812-2.771-.797-2.486.032-5.79.245-6.585-2.946Z"/>
    <path fill="#D0CDE1" d="M245.415 62.117s18.89 7.556 13.223 24.557c-5.667 17.002-20.779 69.266-20.779 69.266l-8.816 4.408-2.519 6.926-11.964-4.407 1.889-9.446s.63-.629.63-3.148-2.519-3.149.63-3.149c3.148 0 3.148-3.148 3.148-3.148l11.335-70.525s0-11.964 13.223-11.334Z"/>
    <path fill="#000" d="m259.583 90.138-19.52 66.747-8.186 8.186 4.723-8.501 22.983-66.432Z" opacity=".1"/>
  </g>
  <defs>
    <clipPath id="a">
      <path fill="#fff" d="M0 0h360v316.632H0z"/>
    </clipPath>
  </defs>
</svg>
