<svg xmlns="http://www.w3.org/2000/svg" width="342" height="513" fill="none" viewBox="0 0 342 513">
  <g clip-path="url(#a)">
    <path fill="#6C63FF" d="M278.814 181.655c2.077 20.606 18.261 37.877 33.543 49.457 5.112 3.878 10.633 7.874 13.858 14.252 3.94 7.782 3.246 16.959.721 23.925-4.599 12.699-14.89 20.784-26.794 21.033-10.272.22-21.276-5.012-31.488-4.415-17.091.986-28.338 17.868-35.602 35.748-5.136 12.649-10.115 27.429-21.542 30.582-8.04 2.227-17.576-2.143-25.627-8.776-3.889-3.204-7.724-7.034-11.984-8.433-2.528-.831-5.03-.73-7.418-.371-21.83 3.293-36.25 27.016-58.468 28.688-15.005 1.14-31.44-8.287-44.918-21.675-13.478-13.388-24.463-30.516-34.877-47.693-7.402-12.206-14.951-25.582-16.073-39.471-1.2-14.698 5.422-27.037 14.771-33.157 9.35-6.119 21.114-6.829 32.735-5.51 14.535 1.642 30.056 6.196 42.616.353 8.559-3.979 14.719-12.378 21.379-19.7 11.127-12.239 24.078-21.794 37.074-31.102 12.44-8.907 25.108-17.708 39.374-22.565 10.112-3.447 20.857-2.283 31.246-4.285 6.773-1.303 12.406-5.344 19.521-5.519 8.765-.232 19.582 3.69 25.077 15.261 5.233 10.989 1.772 22.438 2.876 33.373Z" opacity=".1"/>
    <path fill="url(#b)" d="m237.426 137.044-19.488-1.229-11.275-.838v-.02h-.297v.023l-60.634 5.048h-5.027l-.591 21.778 9.761 3.581 5.915 31.325-26.914 55.484-16.264 12.826v12.23l9.761 9.846.591 45.047 2.959.594v-.478l1.486.297v.178l57.763 20.214 2.428 1.713 5.079-3.293 40.915-24.599 3.832-189.727Zm-62.1 139.941 15.824-13.955-15.824 13.955Zm-54.882 5.79 4.28 4.326v.267l-4.28-4.593Z"/>
    <path fill="#535461" d="m128.225 288.012 57.635 15.143-8.56-10.095-4.85-6.236-50.502-10.392-2.282 2.079 8.559 9.501Z"/>
    <path fill="#D6D6E3" d="m119.666 278.511 56.778 13.658.286-14.252-16.264-6.532-32.526-5.641h-9.416l1.142 12.767Zm41.086-80.76 57.92 3.86v-11.283l-3.995-25.238-1.997-1.781-57.92 1.781 5.992 32.661Z"/>
    <path fill="#D6D6E3" d="M147.056 141.04h-2.853l-.571 21.675 9.416 3.563 5.706 31.176-25.964 55.226-15.692 12.767v12.173l9.415 9.798.571 44.834 2.853.594-.571-44.537-9.415-10.392-.285-12.47 15.122-12.471 26.534-55.225-5.706-31.473-9.416-4.157.856-21.081Z"/>
    <path fill="#535461" d="M144.774 141.04h-2.853l-.571 21.675 9.415 3.563 5.707 31.176-25.964 55.226-15.693 12.767v12.173l9.416 9.798.57 44.834 2.854.594-.571-44.537-9.416-10.392-.285-12.47 15.693-12.471 25.964-55.225-5.707-31.473-9.415-4.157.856-21.081Z"/>
    <path fill="#A8A8A8" d="m144.631 160.488 1.427 2.079 7.989 3.859 63.341-1.781-6.135-1.93-6.562-2.969.856-2.375-60.916 3.117Z"/>
    <path fill="#6C63FF" d="m133.932 253.867 57.92 9.798 11.698-25.831 15.978-37.114-58.776-2.969-26.82 56.116Z"/>
    <path fill="#fff" d="m163.89 208.44 39.089 3.266-20.258 41.567-37.947-5.938 19.116-38.895Z" opacity=".1"/>
    <path fill="#fff" d="m166.586 211.459 1.727.146-.893 1.832-1.675-.262.841-1.716Zm.286 17.221 1.726.146-.893 1.831-1.675-.261.842-1.716Zm9.415-15.143 1.727.146-.893 1.832-1.675-.261.841-1.717Zm17.976.891 1.726.146-.893 1.832-1.675-.262.842-1.716Zm-24.253 2.376 1.727.145-.893 1.832-1.675-.261.841-1.716Zm6.277 18.111 1.727.146-.893 1.832-1.675-.262.841-1.716Zm-15.407-10.392 1.726.146-.893 1.832-1.675-.262.842-1.716Zm26.25-10.986 1.726.146-.893 1.832-1.675-.261.842-1.717Zm-13.696 10.096 1.726.145-.893 1.832-1.675-.261.842-1.716Zm-1.997-11.283 1.726.145-.893 1.832-1.675-.261.842-1.716Zm8.845 10.392 1.726.145-.893 1.832-1.675-.261.842-1.716Zm1.997-9.205 1.726.146-.893 1.832-1.675-.261.842-1.717Zm-17.975 4.157 1.726.146-.893 1.832-1.675-.262.842-1.716Z" opacity=".1"/>
    <path fill="#D6D6E3" d="m118.524 265.744 56.494 11.876 15.561-14.169-56.505-10.029-15.55 12.322Z"/>
    <path fill="#535461" d="M129.081 286.528v46.318l55.923 20.19.856-48.1-2.283-4.474-10.271-2.652-44.225-11.282Z"/>
    <path fill="#575988" d="M136.357 259.212c1.339 0 2.425-.665 2.425-1.485 0-.82-1.086-1.485-2.425-1.485-1.34 0-2.425.665-2.425 1.485 0 .82 1.085 1.485 2.425 1.485Z"/>
    <path fill="#FA595F" d="M138.354 262.478c1.339 0 2.425-.665 2.425-1.485 0-.82-1.086-1.485-2.425-1.485-1.339 0-2.425.665-2.425 1.485 0 .82 1.086 1.485 2.425 1.485Z"/>
    <path fill="#FFD037" d="M131.506 261.587c1.34 0 2.426-.665 2.426-1.485 0-.82-1.086-1.484-2.426-1.484-1.339 0-2.425.664-2.425 1.484s1.086 1.485 2.425 1.485Z"/>
    <path fill="#575988" d="M162.321 264.556c1.339 0 2.425-.665 2.425-1.485 0-.819-1.086-1.484-2.425-1.484-1.339 0-2.425.665-2.425 1.484 0 .82 1.086 1.485 2.425 1.485Z"/>
    <path fill="#FFD037" d="M157.471 267.228c1.339 0 2.425-.664 2.425-1.484s-1.086-1.485-2.425-1.485c-1.34 0-2.426.665-2.426 1.485 0 .82 1.086 1.484 2.426 1.484Z"/>
    <path fill="#A8A8A8" d="M148.34 263.071c1.97 0 3.567-.797 3.567-1.781 0-.984-1.597-1.782-3.567-1.782-1.969 0-3.566.798-3.566 1.782s1.597 1.781 3.566 1.781Z"/>
    <path fill="#FA595F" d="M164.889 267.822c1.339 0 2.425-.665 2.425-1.485 0-.819-1.086-1.484-2.425-1.484-1.34 0-2.425.665-2.425 1.484 0 .82 1.085 1.485 2.425 1.485Z"/>
    <path fill="#A8A8A8" d="M149.339 260.996h-1.712l-1.472-5.914a1.722 1.722 0 0 1 .287-1.453 1.64 1.64 0 0 1 .567-.481 1.564 1.564 0 0 1 1.856.322c.303.315.474.743.474 1.19v6.336Zm24.68 6.826c1.97 0 3.567-.798 3.567-1.781 0-.984-1.597-1.782-3.567-1.782-1.97 0-3.566.798-3.566 1.782 0 .983 1.596 1.781 3.566 1.781Z"/>
    <path fill="#A8A8A8" d="M175.018 265.747h-1.712l-1.472-5.915a1.745 1.745 0 0 1-.019-.761 1.71 1.71 0 0 1 .306-.691c.151-.203.345-.368.566-.481a1.571 1.571 0 0 1 1.857.321c.303.316.474.744.474 1.191v6.336Z"/>
    <path fill="#535461" d="m146.771 141.04 58.776-5.047-1.427 22.268-58.776 2.969 1.427-20.19Z"/>
    <path fill="#D6D6E3" d="m205.262 135.993 27.105 2.078-3.709 188.837-41.514 27.761-2.853-2.078-.143-49.436-9.13-10.689V277.62l15.978-14.549 27.105-62.648-3.852-35.778h1.997l-12.696-4.602 1.712-24.05Z"/>
    <path fill="#535461" d="m207.83 136.29 27.39 1.781-3.709 188.837-44.51 27.612v-51.365l-9.13-10.689V277.62l15.978-14.549 27.105-62.648-4.85-35.927-9.701-4.453 1.427-23.753Z"/>
    <path fill="url(#c)" d="M159.642 250.69c-3.995 8.611-13.827 6.378-13.827 6.378-.508-.49-3.686-1.31-6.097-1.877-1.547-.365-2.776-.62-2.776-.62l3.375-4.896 2.531.54 3.775.808s17.028-8.94 13.019-.333Z"/>
    <path fill="url(#d)" d="M159.642 250.69c-3.995 8.611-13.827 6.378-13.827 6.378-.508-.49-3.686-1.31-6.097-1.877-1.547-.365-2.776-.62-2.776-.62l3.375-4.896 2.531.54 3.775.808s17.028-8.94 13.019-.333Z" opacity=".08"/>
    <path fill="url(#e)" d="m142.851 250.215-3.139 4.979a115.6 115.6 0 0 0-2.776-.62l3.375-4.896 2.54.537Z" opacity=".1"/>
    <path fill="url(#f)" d="M107.762 232.418s14.714 23.928 30.469 23.872l4.28-6.829s-14.42-10.719-16.337-16.307c-.708-2.078-2.169-4.925-3.727-7.719-4.784-8.56-17.689-2.969-14.853 6.437.055.186.111.368.168.546Z"/>
    <path fill="url(#g)" d="M107.762 232.418s14.714 23.928 30.469 23.872l4.28-6.829s-14.42-10.719-16.337-16.307c-.708-2.078-2.169-4.925-3.727-7.719-4.784-8.56-17.689-2.969-14.853 6.437.055.186.111.368.168.546Z" opacity=".05"/>
    <path fill="url(#h)" d="m98.184 371.501.69 8.313s22.6-3.907 22.404-11.719c-.197-7.811-23.094 3.406-23.094 3.406Z"/>
    <path fill="url(#i)" d="m98.184 371.501.69 8.313s22.6-3.907 22.404-11.719c-.197-7.811-23.094 3.406-23.094 3.406Z" opacity=".1"/>
    <path fill="url(#j)" d="m124.633 374.105-.394 7.212s31.386-2.405 30.199-9.204c-1.187-6.8-17.764-3.017-17.764-3.017l-12.041 5.009Z"/>
    <path fill="url(#k)" d="M125.027 303.588s-1.855 5.345-4.223 11.467c-2.265 5.861-4.999 12.449-7.027 15.778-4.146 6.811-4.737 27.847-4.737 27.847-.79 3.406 3.159 10.018 3.159 10.018-7.895 8.611-15.2 3.608-15.2 3.608 1.382-2.604-.986-10.018-.986-10.018s3.158-34.258 5.135-35.861c1.978-1.604 3.553-9.617 3.553-9.617l-1.767-27.233-.405-6.235 16.974-7.812 1.224 6.211 1.213 6.149 3.087 15.698Z"/>
    <path fill="url(#l)" d="M125.027 303.588s-1.855 5.345-4.223 11.467c-2.265 5.861-4.999 12.449-7.027 15.778-4.146 6.811-4.737 27.847-4.737 27.847-.79 3.406 3.159 10.018 3.159 10.018-7.895 8.611-15.2 3.608-15.2 3.608 1.382-2.604-.986-10.018-.986-10.018s3.158-34.258 5.135-35.861c1.978-1.604 3.553-9.617 3.553-9.617l-1.767-27.233-.405-6.235 16.974-7.812 1.224 6.211 1.213 6.149 3.087 15.698Z" opacity=".1"/>
    <path fill="url(#m)" d="M139.829 369.901c-3.552 6.41-15.978 5.608-15.978 5.608v-18.833s-3.552-21.036-1.578-25.831c1.975-4.795-.79-13.623-.79-13.623l-.679-2.164-8.049-25.832-2.334-7.488h26.646v3.367c.034 8.017.194 27.883.979 32.494.987 5.811-1.778 9.617-1.778 9.617s1.578 23.641.197 31.051c-1.381 7.411 3.364 11.634 3.364 11.634Z"/>
    <path fill="url(#n)" d="M117.922 193.802s-4.145 11.618-12.434 15.825c-8.289 4.207 13.618 5.41 13.618 5.41s3.553-8.815 11.644-15.027l-12.828-6.208Z"/>
    <path fill="url(#o)" d="M137.076 285.117c-3.304.662-9.15 1.797-15.139 2.782-3.139.517-6.312.992-9.182 1.336-4.417.532-8.112.755-9.823.339l-.406-6.235 16.974-7.812 1.224 6.211h16.343s0 1.295.009 3.379Z" opacity=".1"/>
    <path fill="url(#p)" d="M139.829 283.953s-33.357 7.013-37.499 4.81c-4.143-2.203-5.136-7.811-3.95-14.023 1.188-6.211 0-21.636-2.17-41.271-1.093-9.887 1.315-16.523 3.98-20.674a12.848 12.848 0 0 1 4.585-4.257 12.283 12.283 0 0 1 5.971-1.512c3.608-.015 7.115 1.241 9.95 3.563.833.692 1.674 1.259 2.362 1.452.542.152 1.358.751 2.283 1.568 4.116 3.689 6.7 8.893 7.21 14.522.342 3.732.704 8.432.881 13.183.182 4.057.142 8.121-.12 12.173a41.492 41.492 0 0 0 .406 8.881c1.537 10.825 6.111 21.585 6.111 21.585Z"/>
    <path fill="url(#q)" d="M133.72 262.383c-12.106-7.667-18.366-29.116-18.366-29.116 0-.187 0-.371-.02-.552-.271-9.837 13.647-11.731 16.01-2.185.767 3.108 1.426 6.262 1.563 8.441.075.802.252 1.59.528 2.343.182 4.057.142 8.121-.12 12.173a41.569 41.569 0 0 0 .405 8.896Z" opacity=".1"/>
    <path fill="url(#r)" d="M115.848 200.714c1.969 3.388 3.527 6.799 7.524 7.378a36.917 36.917 0 0 1 6.785-6.876l-12.84-6.212s.754 2.12-1.469 5.71Z" opacity=".1"/>
    <path fill="url(#s)" d="M125.817 207.02c7.195 0 13.028-5.919 13.028-13.221 0-7.302-5.833-13.222-13.028-13.222s-13.028 5.92-13.028 13.222 5.833 13.221 13.028 13.221Z"/>
    <path fill="url(#t)" d="M138.694 197.947a2.58 2.58 0 0 0 1.529-.422c.625-.472.824-1.318.967-2.096.34-1.838.605-3.774 0-5.543-.391-1.17-1.141-2.183-1.666-3.293-1.17-2.426-1.378-5.345-3.047-7.45-1.042-1.318-4.702 0-6.232-.665-3.287-1.437-4.713-4.353-8.294-4.35a12.75 12.75 0 0 0-3.886.505c-1.601.514-3.016 1.485-4.331 2.551-2.283 1.846-4.52 4.382-4.317 7.345.131 1.892 1.241 3.563 1.894 5.327 1.096 2.969.896 6.306.106 9.382-.337 1.31-.722 2.874.171 3.875.571.626 1.475.805 2.283.668a7.45 7.45 0 0 0 2.282-.95c1.284-.71 2.585-1.431 3.624-2.473.687-.689 1.241-1.503 1.894-2.224a21.093 21.093 0 0 1 4.309-3.563c1.264-.79 2.568-.297 3.894.217 2.916 1.113 5.613 3.218 8.82 3.159Z" opacity=".1"/>
    <path fill="url(#u)" d="M138.497 197.745a2.58 2.58 0 0 0 1.529-.422c.625-.472.825-1.318.967-2.096.34-1.838.605-3.774 0-5.543-.391-1.17-1.141-2.183-1.666-3.293-1.17-2.426-1.378-5.345-3.047-7.45-1.042-1.318-4.505.202-6.035-.466-3.287-1.437-4.91-4.552-8.491-4.549a12.75 12.75 0 0 0-3.886.505c-1.601.514-3.016 1.485-4.331 2.551-2.283 1.846-4.52 4.382-4.317 7.345.131 1.892 1.241 3.563 1.895 5.327 1.095 2.969.895 6.306.105 9.382-.337 1.31-.722 2.874.171 3.875.571.627 1.475.805 2.283.668a7.45 7.45 0 0 0 2.282-.95c1.284-.71 2.585-1.431 3.624-2.473.688-.689 1.241-1.503 1.894-2.224a21.093 21.093 0 0 1 4.309-3.563c1.264-.79 2.568-.297 3.894.217 2.916 1.113 5.613 3.218 8.82 3.159Z"/>
    <path fill="url(#v)" d="M133.72 262.383a41.559 41.559 0 0 1-.405-8.881c.262-4.052.302-8.117.12-12.174-.177-4.75-.536-9.45-.882-13.182-.511-5.635-3.102-10.843-7.227-14.531-.916-.817-1.732-1.42-2.282-1.568-.688-.19-1.53-.76-2.363-1.452-2.802-2.325.759 2.203 1.675 3.02 4.125 3.688 6.715 8.896 7.227 14.531.343 3.732.705 8.432.882 13.182.182 4.057.142 8.122-.12 12.174a41.559 41.559 0 0 0 .405 8.881c1.535 10.816 6.109 21.57 6.109 21.57s-22.329 4.694-32.721 5.193c8.143.594 35.68-5.193 35.68-5.193s-4.563-10.76-6.098-21.57Z" opacity=".05"/>
    <path fill="url(#w)" d="M160.949 264.322c-6.121 7.211-15 2.404-15 2.404-.362-.611-3.21-2.259-5.381-3.459a129.576 129.576 0 0 0-2.513-1.35l4.539-3.807 2.297 1.206 3.424 1.799s18.759-4.005 12.634 3.207Z"/>
    <path fill="url(#x)" d="m144.891 259.316-4.323 3.951a129.576 129.576 0 0 0-2.513-1.35l4.539-3.807 2.297 1.206Z" opacity=".1"/>
    <path fill="url(#y)" d="M115.751 232.668s7.895 27.045 23.094 31.253l5.92-5.41s-11.073-14.234-11.461-20.14c-.14-2.182-.796-5.344-1.564-8.441-2.362-9.543-16.28-7.651-16.009 2.185.006.182.012.367.02.553Z"/>
    <path fill="url(#z)" d="M100.455 259.013s5.136-4.208 9.869-1.001c4.734 3.207 11.644 2.806 12.631 3.005" opacity=".05"/>
    <path fill="#F7C4A7" d="M158.164 250.251c-3.809 8.396-13.159 6.235-13.159 6.235-.485-.478-3.51-1.277-5.801-1.829-1.472-.356-2.642-.594-2.642-.594l3.213-4.777 2.408.528 3.592.787s16.198-8.75 12.389-.35Z"/>
    <path fill="#000" d="M158.164 250.251c-3.809 8.396-13.159 6.235-13.159 6.235-.485-.478-3.51-1.277-5.801-1.829-1.472-.356-2.642-.594-2.642-.594l3.213-4.777 2.408.528 3.592.787s16.198-8.75 12.389-.35Z" opacity=".08"/>
    <path fill="#000" d="m142.183 249.785-2.979 4.857c-1.472-.356-2.642-.594-2.642-.594l3.213-4.777 2.408.514Z" opacity=".1"/>
    <path fill="#575988" d="M108.792 232.421s14.004 23.349 28.994 23.29l4.078-6.651s-13.722-10.457-15.548-15.911c-.673-2.014-2.062-4.804-3.543-7.524-4.565-8.349-16.834-2.895-14.138 6.282l.157.514Z"/>
    <path fill="#000" d="M108.792 232.421s14.004 23.349 28.994 23.29l4.078-6.651s-13.722-10.457-15.548-15.911c-.673-2.014-2.062-4.804-3.543-7.524-4.565-8.349-16.834-2.895-14.138 6.282l.157.514Z" opacity=".05"/>
    <path fill="#535461" d="m99.676 368.125.656 8.112s21.508-3.813 21.319-11.434c-.188-7.622-21.975 3.322-21.975 3.322Z"/>
    <path fill="#000" d="m99.676 368.125.656 8.112s21.508-3.813 21.319-11.434c-.188-7.622-21.975 3.322-21.975 3.322Z" opacity=".1"/>
    <path fill="#535461" d="m124.847 370.667-.377 7.039s29.868-2.345 28.741-8.99c-1.127-6.645-16.906-2.934-16.906-2.934l-11.458 4.885Z"/>
    <path fill="#6A5C99" d="M125.221 301.86s-1.766 5.208-4.02 11.188c-2.157 5.718-4.76 12.146-6.688 15.395-3.932 6.648-4.503 27.17-4.503 27.17-.75 3.323 3.005 9.774 3.005 9.774-7.513 8.406-14.463 3.519-14.463 3.519 1.315-2.542-.939-9.774-.939-9.774s3.005-33.427 4.885-34.989c1.88-1.561 3.378-9.382 3.378-9.382l-1.681-26.571-.385-6.072 16.155-7.624 1.173 6.06 1.141 6 2.942 15.306Z"/>
    <path fill="#000" d="M125.221 301.86s-1.766 5.208-4.02 11.188c-2.157 5.718-4.76 12.146-6.688 15.395-3.932 6.648-4.503 27.17-4.503 27.17-.75 3.323 3.005 9.774 3.005 9.774-7.513 8.406-14.463 3.519-14.463 3.519 1.315-2.542-.939-9.774-.939-9.774s3.005-33.427 4.885-34.989c1.88-1.561 3.378-9.382 3.378-9.382l-1.681-26.571-.385-6.072 16.155-7.624 1.173 6.06 1.141 6 2.942 15.306Z" opacity=".1"/>
    <path fill="#6A5C99" d="M139.31 366.56c-3.381 6.256-15.216 5.472-15.216 5.472v-18.376s-3.381-20.525-1.504-25.216c1.878-4.692-.75-13.293-.75-13.293l-.639-2.102-7.661-25.19-2.22-7.304h25.359v3.286c.032 7.818.186 27.207.933 31.705.939 5.668-1.692 9.382-1.692 9.382s1.504 23.064.189 30.285c-1.316 7.221 3.201 11.351 3.201 11.351Z"/>
    <path fill="#F7C4A7" d="M118.459 194.743s-3.946 11.336-11.835 15.439c-7.89 4.104 12.962 5.279 12.962 5.279s3.381-8.61 11.082-14.661l-12.209-6.057Z"/>
    <path fill="#000" d="M136.688 283.841c-3.144.635-8.702 1.751-14.409 2.713-2.984.505-6.006.968-8.739 1.304-4.203.516-7.721.736-9.35.329l-.385-6.072 16.154-7.624 1.179 6.063h15.553s-.012 1.25-.003 3.287Z" opacity=".1"/>
    <path fill="#575988" d="M139.31 282.694s-31.745 6.829-35.688 4.692c-3.943-2.138-4.885-7.625-3.758-13.682 1.127-6.057 0-21.111-2.065-40.267-1.042-9.647 1.252-16.12 3.786-20.173a12.172 12.172 0 0 1 4.335-4.144 11.609 11.609 0 0 1 5.708-1.497c3.446-.013 6.79 1.213 9.467 3.471.793.674 1.595 1.229 2.248 1.416.517.146 1.293.734 2.163 1.529 3.946 3.641 6.407 8.712 6.879 14.178.328 3.64.671 8.227.839 12.865.174 3.958.137 7.923-.111 11.877a41.438 41.438 0 0 0 .385 8.664c1.458 10.587 5.812 21.071 5.812 21.071Z"/>
    <path fill="#000" d="M133.495 261.658c-11.521-7.479-17.479-28.408-17.479-28.408 0-.181 0-.363-.02-.538-.256-9.596 12.988-11.446 15.236-2.132.731 3.035 1.356 6.108 1.487 8.237.071.781.24 1.55.502 2.286.174 3.958.137 7.923-.111 11.876a41.442 41.442 0 0 0 .385 8.679Zm-17.008-60.172c1.872 3.305 3.355 6.636 7.162 7.197a35.622 35.622 0 0 1 6.456-6.71l-12.208-6.06s.704 2.072-1.41 5.573Z" opacity=".1"/>
    <path fill="#F7C4A7" d="M125.974 207.644c6.847 0 12.397-5.776 12.397-12.901s-5.55-12.901-12.397-12.901-12.397 5.776-12.397 12.901 5.55 12.901 12.397 12.901Z"/>
    <path fill="#000" d="M138.228 198.787a2.421 2.421 0 0 0 1.456-.416c.593-.46.784-1.288.918-2.045.323-1.782.571-3.682 0-5.41-.371-1.143-1.075-2.129-1.586-3.213-1.116-2.375-1.312-5.214-2.899-7.268-.993-1.286-4.474 0-5.932-.65-3.138-1.402-4.485-4.246-7.892-4.243a11.803 11.803 0 0 0-3.709.493c-1.523.498-2.87 1.454-4.12 2.488-2.18 1.802-4.302 4.275-4.108 7.167.125 1.847 1.181 3.462 1.803 5.196 1.044 2.904.856 6.155.1 9.154-.32 1.277-.688 2.803.162 3.783.531.608 1.404.786 2.183.65a6.978 6.978 0 0 0 2.183-.927c1.221-.691 2.459-1.395 3.446-2.41.654-.674 1.182-1.467 1.804-2.171a20.175 20.175 0 0 1 4.1-3.477c1.204-.769 2.439-.297 3.709.211 2.765 1.093 5.33 3.147 8.382 3.088Z" opacity=".1"/>
    <path fill="#632652" d="M138.04 198.591a2.415 2.415 0 0 0 1.455-.41c.594-.46.785-1.288.919-2.046.322-1.781.571-3.681 0-5.409-.371-1.143-1.076-2.129-1.586-3.213-1.116-2.375-1.313-5.214-2.899-7.268-.993-1.286-4.28.199-5.744-.455-3.138-1.401-4.673-4.453-8.08-4.453a11.832 11.832 0 0 0-3.709.493c-1.524.498-2.87 1.454-4.12 2.488-2.18 1.802-4.303 4.275-4.109 7.167.126 1.847 1.181 3.462 1.803 5.196 1.045 2.904.856 6.155.1 9.154-.319 1.277-.687 2.803.163 3.783.531.608 1.404.786 2.183.65a6.994 6.994 0 0 0 2.182-.926c1.222-.692 2.46-1.396 3.447-2.411.653-.674 1.181-1.467 1.803-2.171a20.208 20.208 0 0 1 4.14-3.465c1.204-.769 2.44-.297 3.709.211 2.725 1.084 5.29 3.144 8.343 3.085Z"/>
    <path fill="#000" d="M133.495 261.658a41.552 41.552 0 0 1-.374-8.655c.248-3.954.285-7.918.112-11.876-.169-4.638-.511-9.222-.839-12.866-.473-5.465-2.933-10.537-6.879-14.177-.871-.799-1.647-1.384-2.163-1.529-.653-.187-1.455-.743-2.248-1.417-2.668-2.268.721 2.15 1.595 2.946 3.946 3.64 6.406 8.712 6.879 14.177.328 3.641.67 8.228.838 12.866a111.49 111.49 0 0 1-.111 11.876 41.574 41.574 0 0 0 .385 8.664c1.461 10.552 5.815 21.045 5.815 21.045s-21.25 4.579-31.137 5.069c7.749.593 33.953-5.069 33.953-5.069s-4.365-10.502-5.826-21.054Z" opacity=".05"/>
    <path fill="#F7C4A7" d="M159.408 263.549c-5.824 7.037-14.266 2.346-14.266 2.346-.343-.594-3.053-2.206-5.136-3.373a119.898 119.898 0 0 0-2.391-1.318l4.32-3.714 2.185 1.187 3.267 1.749s17.844-3.913 12.021 3.123Z"/>
    <path fill="#000" d="m144.126 258.665-4.114 3.86a119.898 119.898 0 0 0-2.391-1.318l4.32-3.715 2.185 1.173Z" opacity=".1"/>
    <path fill="#575988" d="M116.393 232.665s7.512 26.389 21.97 30.493l5.635-5.28s-10.557-13.886-10.908-19.649c-.134-2.129-.756-5.205-1.489-8.237-2.249-9.311-15.493-7.464-15.234 2.132.01.178.018.358.026.541Z"/>
    <path fill="#000" d="M101.836 258.368s4.885-4.106 9.393-.976c4.508 3.129 11.082 2.737 12.02 2.933" opacity=".05"/>
  </g>
  <defs>
    <linearGradient id="b" x1="175.018" x2="175.018" y1="354.672" y2="134.957" gradientUnits="userSpaceOnUse">
      <stop stop-color="gray" stop-opacity=".25"/>
      <stop offset=".54" stop-color="gray" stop-opacity=".12"/>
      <stop offset="1" stop-color="gray" stop-opacity=".1"/>
    </linearGradient>
    <linearGradient id="c" x1="12334.2" x2="12334.2" y1="4923.54" y2="4560.68" gradientUnits="userSpaceOnUse">
      <stop stop-color="gray" stop-opacity=".25"/>
      <stop offset=".54" stop-color="gray" stop-opacity=".12"/>
      <stop offset="1" stop-color="gray" stop-opacity=".1"/>
    </linearGradient>
    <linearGradient id="d" x1="12334.2" x2="12334.2" y1="4923.54" y2="4560.68" gradientUnits="userSpaceOnUse">
      <stop stop-color="gray" stop-opacity=".25"/>
      <stop offset=".54" stop-color="gray" stop-opacity=".12"/>
      <stop offset="1" stop-color="gray" stop-opacity=".1"/>
    </linearGradient>
    <linearGradient id="e" x1="3051.41" x2="3051.41" y1="2695.59" y2="2593.09" gradientUnits="userSpaceOnUse">
      <stop stop-color="gray" stop-opacity=".25"/>
      <stop offset=".54" stop-color="gray" stop-opacity=".12"/>
      <stop offset="1" stop-color="gray" stop-opacity=".1"/>
    </linearGradient>
    <linearGradient id="f" x1="15649.2" x2="15649.2" y1="15906.9" y2="11763.2" gradientUnits="userSpaceOnUse">
      <stop stop-color="gray" stop-opacity=".25"/>
      <stop offset=".54" stop-color="gray" stop-opacity=".12"/>
      <stop offset="1" stop-color="gray" stop-opacity=".1"/>
    </linearGradient>
    <linearGradient id="g" x1="15649.2" x2="15649.2" y1="15906.9" y2="11763.2" gradientUnits="userSpaceOnUse">
      <stop stop-color="gray" stop-opacity=".25"/>
      <stop offset=".54" stop-color="gray" stop-opacity=".12"/>
      <stop offset="1" stop-color="gray" stop-opacity=".1"/>
    </linearGradient>
    <linearGradient id="h" x1="9036.45" x2="9036.45" y1="12867.4" y2="12160.7" gradientUnits="userSpaceOnUse">
      <stop stop-color="gray" stop-opacity=".25"/>
      <stop offset=".54" stop-color="gray" stop-opacity=".12"/>
      <stop offset="1" stop-color="gray" stop-opacity=".1"/>
    </linearGradient>
    <linearGradient id="i" x1="9036.45" x2="9036.45" y1="12867.4" y2="12160.7" gradientUnits="userSpaceOnUse">
      <stop stop-color="gray" stop-opacity=".25"/>
      <stop offset=".54" stop-color="gray" stop-opacity=".12"/>
      <stop offset="1" stop-color="gray" stop-opacity=".1"/>
    </linearGradient>
    <linearGradient id="j" x1="14962.9" x2="14962.9" y1="11888.8" y2="11295.2" gradientUnits="userSpaceOnUse">
      <stop stop-color="gray" stop-opacity=".25"/>
      <stop offset=".54" stop-color="gray" stop-opacity=".12"/>
      <stop offset="1" stop-color="gray" stop-opacity=".1"/>
    </linearGradient>
    <linearGradient id="k" x1="11405.5" x2="11405.5" y1="83044.4" y2="50554.8" gradientUnits="userSpaceOnUse">
      <stop stop-color="gray" stop-opacity=".25"/>
      <stop offset=".54" stop-color="gray" stop-opacity=".12"/>
      <stop offset="1" stop-color="gray" stop-opacity=".1"/>
    </linearGradient>
    <linearGradient id="l" x1="11405.5" x2="11405.5" y1="83044.4" y2="50554.8" gradientUnits="userSpaceOnUse">
      <stop stop-color="gray" stop-opacity=".25"/>
      <stop offset=".54" stop-color="gray" stop-opacity=".12"/>
      <stop offset="1" stop-color="gray" stop-opacity=".1"/>
    </linearGradient>
    <linearGradient id="m" x1="13078.7" x2="13078.7" y1="79893.3" y2="50261.9" gradientUnits="userSpaceOnUse">
      <stop stop-color="gray" stop-opacity=".25"/>
      <stop offset=".54" stop-color="gray" stop-opacity=".12"/>
      <stop offset="1" stop-color="gray" stop-opacity=".1"/>
    </linearGradient>
    <linearGradient id="n" x1="11314.3" x2="11314.3" y1="6737" y2="5218.26" gradientUnits="userSpaceOnUse">
      <stop stop-color="gray" stop-opacity=".25"/>
      <stop offset=".54" stop-color="gray" stop-opacity=".12"/>
      <stop offset="1" stop-color="gray" stop-opacity=".1"/>
    </linearGradient>
    <linearGradient id="o" x1="14693.1" x2="14693.1" y1="8261.41" y2="7576.79" gradientUnits="userSpaceOnUse">
      <stop stop-color="gray" stop-opacity=".25"/>
      <stop offset=".54" stop-color="gray" stop-opacity=".12"/>
      <stop offset="1" stop-color="gray" stop-opacity=".1"/>
    </linearGradient>
    <linearGradient id="p" x1="18336.4" x2="18336.4" y1="46045.6" y2="23307.1" gradientUnits="userSpaceOnUse">
      <stop stop-color="gray" stop-opacity=".25"/>
      <stop offset=".54" stop-color="gray" stop-opacity=".12"/>
      <stop offset="1" stop-color="gray" stop-opacity=".1"/>
    </linearGradient>
    <linearGradient id="q" x1="8186.32" x2="8186.32" y1="18043.5" y2="13152.6" gradientUnits="userSpaceOnUse">
      <stop stop-color="gray" stop-opacity=".25"/>
      <stop offset=".54" stop-color="gray" stop-opacity=".12"/>
      <stop offset="1" stop-color="gray" stop-opacity=".1"/>
    </linearGradient>
    <linearGradient id="r" x1="6319.29" x2="6319.29" y1="3921.52" y2="3344.74" gradientUnits="userSpaceOnUse">
      <stop stop-color="gray" stop-opacity=".25"/>
      <stop offset=".54" stop-color="gray" stop-opacity=".12"/>
      <stop offset="1" stop-color="gray" stop-opacity=".1"/>
    </linearGradient>
    <linearGradient id="s" x1="10506.6" x2="10506.6" y1="6773.09" y2="4417.81" gradientUnits="userSpaceOnUse">
      <stop stop-color="gray" stop-opacity=".25"/>
      <stop offset=".54" stop-color="gray" stop-opacity=".12"/>
      <stop offset="1" stop-color="gray" stop-opacity=".1"/>
    </linearGradient>
    <linearGradient id="t" x1="14326.1" x2="14326.1" y1="8203.5" y2="5233.21" gradientUnits="userSpaceOnUse">
      <stop stop-color="gray" stop-opacity=".25"/>
      <stop offset=".54" stop-color="gray" stop-opacity=".12"/>
      <stop offset="1" stop-color="gray" stop-opacity=".1"/>
    </linearGradient>
    <linearGradient id="u" x1="14303.4" x2="14303.4" y1="8183.4" y2="5213.11" gradientUnits="userSpaceOnUse">
      <stop stop-color="gray" stop-opacity=".25"/>
      <stop offset=".54" stop-color="gray" stop-opacity=".12"/>
      <stop offset="1" stop-color="gray" stop-opacity=".1"/>
    </linearGradient>
    <linearGradient id="v" x1="15445.9" x2="15445.9" y1="44422.5" y2="23264.9" gradientUnits="userSpaceOnUse">
      <stop stop-color="gray" stop-opacity=".25"/>
      <stop offset=".54" stop-color="gray" stop-opacity=".12"/>
      <stop offset="1" stop-color="gray" stop-opacity=".1"/>
    </linearGradient>
    <linearGradient id="w" x1="12888.7" x2="12888.7" y1="5223.66" y2="4874.29" gradientUnits="userSpaceOnUse">
      <stop stop-color="gray" stop-opacity=".25"/>
      <stop offset=".54" stop-color="gray" stop-opacity=".12"/>
      <stop offset="1" stop-color="gray" stop-opacity=".1"/>
    </linearGradient>
    <linearGradient id="x" x1="3544.35" x2="3544.35" y1="2685.01" y2="2595.42" gradientUnits="userSpaceOnUse">
      <stop stop-color="gray" stop-opacity=".25"/>
      <stop offset=".54" stop-color="gray" stop-opacity=".12"/>
      <stop offset="1" stop-color="gray" stop-opacity=".1"/>
    </linearGradient>
    <linearGradient id="y" x1="13441.9" x2="13441.9" y1="19250.4" y2="13795.5" gradientUnits="userSpaceOnUse">
      <stop stop-color="gray" stop-opacity=".25"/>
      <stop offset=".54" stop-color="gray" stop-opacity=".12"/>
      <stop offset="1" stop-color="gray" stop-opacity=".1"/>
    </linearGradient>
    <linearGradient id="z" x1="8964.24" x2="8964.24" y1="2205.92" y2="2146.27" gradientUnits="userSpaceOnUse">
      <stop stop-color="gray" stop-opacity=".25"/>
      <stop offset=".54" stop-color="gray" stop-opacity=".12"/>
      <stop offset="1" stop-color="gray" stop-opacity=".1"/>
    </linearGradient>
    <clipPath id="a">
      <path fill="#fff" d="M0 0h317v248.317H0z" transform="translate(12 133)"/>
    </clipPath>
  </defs>
</svg>
