<svg xmlns="http://www.w3.org/2000/svg" width="22" height="22" fill="none" viewBox="0 0 22 22">
  <g clip-path="url(#a)">
    <path fill="#000" d="M21.44 10.267c.508-.494.687-1.22.468-1.893a1.836 1.836 0 0 0-1.49-1.257L15.07 6.34a.03.03 0 0 1-.023-.017l-2.39-4.845A1.836 1.836 0 0 0 11 .448c-.708 0-1.343.395-1.656 1.03L6.952 6.323a.03.03 0 0 1-.022.017l-5.347.777A1.832 1.832 0 0 0 .092 8.374a1.836 1.836 0 0 0 .467 1.893l3.87 3.772a.03.03 0 0 1 .008.026l-.913 5.326c-.12.698.162 1.39.734 1.806.573.416 1.319.47 1.946.14l4.782-2.514a.03.03 0 0 1 .028 0l4.783 2.515a1.84 1.84 0 0 0 1.945-.14 1.836 1.836 0 0 0 .735-1.807l-.914-5.326a.03.03 0 0 1 .009-.026l3.869-3.772Zm-5.668 4.105.913 5.326c.003.014.004.018-.011.029-.015.01-.02.009-.032.002l-4.783-2.514a1.847 1.847 0 0 0-1.719 0l-4.782 2.514c-.013.007-.017.009-.032-.002s-.014-.015-.012-.03l.914-5.325c.103-.6-.096-1.21-.531-1.635l-3.87-3.771c-.01-.01-.013-.013-.007-.03.006-.019.01-.02.024-.021l5.347-.777a1.846 1.846 0 0 0 1.39-1.01l2.392-4.846c.007-.013.008-.017.027-.017s.02.004.027.017l2.391 4.845c.27.546.789.923 1.39 1.01l5.348.778c.014.002.018.002.024.02.006.018.003.02-.008.03l-3.869 3.772a1.847 1.847 0 0 0-.531 1.635Z"/>
  </g>
  <defs>
    <clipPath id="a">
      <path fill="#fff" d="M0 0h22v22H0z"/>
    </clipPath>
  </defs>
</svg>
