<svg xmlns="http://www.w3.org/2000/svg" width="22" height="22" fill="none" viewBox="0 0 22 22">
  <g clip-path="url(#a)">
    <path fill="#000" d="M21.44 10.267c.508-.494.687-1.22.468-1.893a1.836 1.836 0 0 0-1.49-1.257L15.07 6.34a.03.03 0 0 1-.023-.017l-2.39-4.845A1.836 1.836 0 0 0 11 .448c-.708 0-1.343.395-1.656 1.03L6.952 6.323a.03.03 0 0 1-.022.017l-5.347.777A1.832 1.832 0 0 0 .092 8.374a1.836 1.836 0 0 0 .467 1.893l3.87 3.772a.03.03 0 0 1 .008.026l-.913 5.326c-.12.698.162 1.39.734 1.806.573.416 1.319.47 1.946.14l4.782-2.514a.03.03 0 0 1 .028 0l4.783 2.515a1.84 1.84 0 0 0 1.945-.14 1.836 1.836 0 0 0 .735-1.807l-.914-5.326a.03.03 0 0 1 .009-.026l3.869-3.772Z"/>
  </g>
  <defs>
    <clipPath id="a">
      <path fill="#fff" d="M0 0h22v22H0z"/>
    </clipPath>
  </defs>
</svg>
